<mxfile host="app.diagrams.net" modified="2023-07-21T07:13:34.595Z" agent="Mozilla/5.0 (Windows NT 10.0; Win64; x64) AppleWebKit/537.36 (KHTML, like Gecko) Chrome/114.0.0.0 Safari/537.36" etag="Nv9RZ9OvyMqcpsGk-Boz" version="21.6.5" type="device">
  <diagram name="Page-1" id="UyE4N2DSAZ2D3ixIdmIs">
    <mxGraphModel dx="1434" dy="764" grid="1" gridSize="10" guides="1" tooltips="1" connect="1" arrows="1" fold="1" page="1" pageScale="1" pageWidth="1654" pageHeight="1169" math="0" shadow="0">
      <root>
        <mxCell id="0" />
        <mxCell id="1" parent="0" />
        <mxCell id="Z-Km8hzNeSPZJjLTvg0I-2" value="" style="shape=image;verticalLabelPosition=bottom;labelBackgroundColor=default;verticalAlign=top;aspect=fixed;imageAspect=0;image=data:image/png,iVBORw0KGgoAAAANSUhEUgAAAskAAADQCAYAAAD1c/yXAAAgAElEQVR4nO3df2wb15kv/C+LNhfdIre15SZNoqgyh71rrNVFGsdGalMCVpuIhPvjjQvlLek2Wb2uK4TsrVuguuQW1SIOqmKXhAu07q5YKE5e1W5EaivEi7YJRMXxAiLjBFbtZjfe3uyKM1YVxW7TyG5v3E2bdDP3D/WcnBnO8IdEiqL0/QCErSFn5swzw5lnnjkz9JimaWKN83g8aIJm0gbV+O3T08B5r1NXDze6BW/btIbaQkQNtP7yoMYfP0t7R6MbQERERES01jBJJiIiIiKy8TRLdwsiIiIiWl/Wchr6zkY3oBJrOYDUhK4+1OgWlLfpwUa3gIho/Vnr+3/u+9cUdrcgIiIiIrJhkkxEREREZMMkmYiIiIjIhkkyEREREZENk2QiIiIiIpumTJKDwWCjm0BERKvI/ihQPhqUiOqtKZLkfD4Pj8eDfD5vGR4MBh2HA0A0GkUymSwa7vF4YBhGRfN1m0alMpkMPB4PPB4PMpnMsqejSiaTluUV01dflc6r2vZlMhlkMhkYhoFoNFrys/l8vqrYuZ34lDohCgaDReuy2hOo6MAT8Gxe/s/+GnNX4dl8GPnn5pc9jXoyDMP1O1KJZDJZtG1UG2OxnS23DUItv0c+n29F3227lcbZjfodVV8+n6+m81lP1H2PGj+xPxd/q+tfHEvEy/63+qpku6lkH1kLPp+v7PFM7Lftwyptn9i2y83HaZ+fTCZLxsseV7e4Ox377csk2lkN346jCPZ+v6pxVJnHL6zo+FFONBpd1rHdifgurJTT9rSerfkkORgMorOzEwDQ2dkJj8eDbDYr/xXD1S+8x+NBKpVCPB6XXz6xkQGApmlFG534gqkvdRqlvrDq9NXX9PQ0TNOEaZoIhUJ1iU8gEJDzcJtXrdvn9XrR1dVVNiFwil2tDhyZTAZ9fX3wer1Fw6qRenQGgW4fMo9fqHic6MATK9qxNgvDMDA3N2fZNgzDsMS8EqOjowgEAhgbG6tqvGg0uqavGq1m++zfcTF/WqIe/G+++WYAkMlZOp2Gruvy/Vwuh1wuZxl/cnISuq4jEonANE1MTk7KWIth4hWLxQAUHzMqLb7Ugpjn1NRU2e/j9PS0/A6L8cLhMFKpVNmTrkwmg56eHpimiZ6enqpPLGOxGE6fPu36vjh+ifUh4h6JRJDL5WCaJhKJhFynIubZbBbhcNhyfNc0zbKM5U5a88/Nw7d1M7KnCzDmrla8TL4dR5E8+kzFn1+uYDCIqakpy7YXDocbnqCOjo7WLZ9Zi9Z8kgwUHyDsL3UH6PT5WCwmP2ff4akrW31P0zToul40rUQi4dhGp88ODw/XLAaimh6Px+XJAgB5wlBuZ1dN+3w+n2NSHQ6H5Y4pHA6js7Oz5IEhkUjUJSbRaNTSFpEsjI6OymHqSZGbzOMXEOj2oW//bRgde35ZbfG2b4J55TD8d7Yta/y1KpPJQNM0eSAV29XExITl4FruQGQYBrLZLIaHh5FKpVar+WUVCgWZ7NSC1+uFaZrw+/01m2Yp/f39mJqaWpV5NVq11S+v14tYLCbXbzgclgkUsFRUEYUXN2oCrG7v9pMiccyIRCKYmJiQn1O/O7UqDqjFDvU4VUo0GsXAwAAMw0AwGJQJqX3fXCgUHJc/HA5D13V4PB7oui4LH+VODtVjiP0YVYqoJHd1dWFhYQEejwcjIyPyREB8z5yO707LVer7ODbxArq7tiJyYCcmfvizku1yE/pUB8wrta8kZzIZZLPZovWSTqcxODhY8/mVYq9m29dnpceCZrXmk+TJyUkA7olbMBiE1+u1JF/qJRuxczIMAz09PRgeHoZhGCUvV4odglpxLrejs3+2mkt0Tpe0nSQSCSQSCeRyOQQCAQDFlWT7l2o57SsUCo4nI7lcDul02jKs2qpiKU7tciOSfnGClMlk0N3dbWmbiJGb0bHn0bf/NoQ+1eFYTcg/Nw/P5sPyZcxdRfLoM0g9OoPs6QKCvd937G6hjqMOjw48Ibt3OL1vZ7/UrlK3cadLnOK9I0eOFE1X/S6V2i7VdS0u654+fbqik0ZhYmICkUgEXq8XgUDAsp07dVEQV3eSySRSqRSy2azlgDw9Pe2asKjLrb4n5iN29plMRna3cLqCpLbJ/r7YB9jb57QsapzV5Y5Go0UHnlocXJz2e2pcndZ5MBi0xM2+XxQn507boBpTp3FL7f9KtbVaImkErOtLbANiOxbHCFGhLHeSZC+olPvl197eXkvhRh2/FsUBkQyapinjLtrk8/mKjiH5fB6pVAqapkHTNHksHRoaslTDVSJ+onrs9hocHLRst+KKbzweRzAYhM/nk/sHEW+nfbJIuMRJi6gkh0IhhEIhx2Oa0/4rn8/L5crn8xVd4Uk9OoPeT/4Z9vd+GCPfO1f0fvLoM3I/7dtxdGk5e78P/eIVxA8/heTRZ4q6W4jjgXrMkO3ecbRo/+9menoakUikaHgoFCqKR6n9iPo9m56etrxn37e57YOGh4ct66/UdrFaRYJVZTaJQCBQ1XBVIpEwAVheuVzOcVoATE3TzEgkIofrum6WClUikTB1XXd9P5fLmYlEomQbNU0z0+l02WkkEgkzl8vJ5bYvl6ZpK26fWF71lU6nLZ8T7RAikUjROG4vNbbq+JWKRCJyeXRdNwOBQHXTvHLY1M9/aWmdXjlsmlcOm5EDO83E4bvl3+L93JMHTPPKYTN9rNfUtm6Wnw10+xw/p23dLKeTPtZrAjD181+S49n/FtOxv3K53NJn/7iciURCrvNIJCL/L9aV2Hbs44n1ItZVIBCwfGfUcVXpdNoy3D6eUG7b0jRNzjudTlumIdqubkdqe9TlFO+5LXc6nbZ8R9XvsPisuo1rmub4nbTPU/1eOsXW3h41zmL+YjzxnlgnTtOxsy+X0/KJaajffXX5AoGA/L9op5i32Oc5bR/2ZbLPQ10f4m8Rq1LzLNVWJ2L51X2I+rdb3MT+St03ing6javretE2Y3/Zt1/xebFP0jTNcTyn443TMpbjtk8t9R1U95f277W6X6lkPqXm6XScU6ftNB8xTIwrviv2VylOx55S8RD7ZnXfq23dLPfh6r5bPT5EDux03ceLzwEw08d6TfPKYTNx+G7Le9rWzfIYYp+O5WVavz+lqN8dsW2rxwz790yNpbpPtO/b3OKsbseV5DXrwZqvJItKhluJXwxXqWdPPp/PcgYeiUSQSCTg9/uLKh/iLLZQKKCrq0tOQ5xV11OhUMDo6GjV41VaSa6WWgVJp9MAlvr6zc3NAQBGRkYsZ43q2abpculLvJyqKtX25xOVcU3Tiq4kVGLihz9D5MBO+ff+3g8jfvgpy/va1s2yG0XoUx0onDtUcpr55+ahX7yC3k/+mRxH27rZcikv0O2Dt30TAKC97X0oXLziOK2xsTEEAgFZqY/FYrISlEqlZN9rr9eLSCQitx37eAMDA3KaouuDerlOHddO7bpSKBTk/CslKhNiOwmFQshmsyuqmqrLrWka5ueXKvGjo6OWysvQ0FBR947du3eXnHYymcTU1JRlOQuFguyStbCwAAC4dOlSyemIOO/fvx/A0vLb+2Sr66i9vb3s99a+3/P5fJZtPpVKYWhoSP7d39+PkZERAEuxisfj8v+m7QpQJBKR62hwcFDe6zExMQFN0+R7AwMD0HXdsv7UewDU9VFqnqXaWo7Yh6h/22UyGUxPT8Pv98t9fyAQkOtS3WeWUkklWXSpENua/Sqc2A9WUmErtw80DKOoLaJKPjEx4Vg9TSaT6OrqwqVLlxAMBi3d1DweD+bm5jA4OFhUzRcx0jTNUkEUfztVOQX16oJ63Bb/L3fV1H7csFef1UpyMBgsqnSm02l4vd6SV4vFVUSh/692YOjItOV99fgwfORjGD7ysZLtFve1hD7VAQCIHdpjGS7mI5dj62bMzf+65DRLyefz0HUdvb29S/MNhaBpGiYmJgAsHaP7+/vl59XvnFgH4oqC3++3jGvn8/mQSqVw8803y9iLKwe1uiK0Vq35JBlw/tKU+hKpN12Ig4+4tNDV1YVYLIZkMmnZaOw3t6k3tU1NTVnes++M5ubmSnZnKNf/TW13NZLJpOPJg31jXU771P504XAYAORBzh47N+ILVIlq+znZu1sASydHlSZgI987h9SjM/KyV+feRwFYd2i+rZsrmpawcOn/AIBMgpczDZVTVxZxIG1tbZXD2tvbLe+X6wIj+rSrB3cn9u4WQPHd6nNzc67zGxsbk/0Z1cv11d7AV4lCoWCJgxqfSmQyGcTj8aJ+vuoBv9KTWJFEi5uNAOd1WQ016QLg2C9RTX5EggosncAGAgHXbhFOxE2b6merWYZy83Rray0MDg4ilUohGAzK9eeUrJWLg73vvdO+zK1Psj2RKDcv9aTJjXhfTNv8Y7eEYDCIeDxeVDAS23Q4HJb7a1H0EK+uri74/f6iIoOYlvj+2v922m/09fUhHo/LpDUSicj9tFo0WelNX+qJiDhmimLa4OAgQqEQotGo6/fVmLuK7OkCwgcn5P4/fvipoi537W3vq6pd8wu/gWbb39v/rpTX63W94VEcA8RJu7rdqNuZrutoayt9r4y6rdrv7VKnKW6+VvuE2wthtbwHay1piiTZ/pQEe0IlKh+CemATj4oR1eBQKIRMJlN0175acQCsO0j15gj1iynYz/CdXrW8SWhoaAjZbBaxWEyeMIi+X2LHt5L2Od0cIWJlGAZGRkYq2tGJL1C5Pk/5fN6xaiOWq1KTk5MYGhqSSZxbZUb0AzavHLa8Igd2Wm7gc6vyumm9+b8vzVfZ0VY7DZVT+8UOUewgAcjqvni/XEVK7SPotD2XIrYTcaJYal6pVKrohtF0Ol2XG/h8Pp8lDmp8yjEMA+FwGLlcznLAMQwDqVRKxqvSg4BIjtWKc62efOD3+5FOpx1vmrXfL6BWp9XCAVD+yRher7eowl3tMpSaZ6m2rlShUICu6/IKk72wIv7vNE+x3z979uyy+iTrum6Zl0gkyi1fJScg4rgmiP3q4OCgYxtFn17xHRff8/n5+bInkSKJdtoni2WyJ2dDQ0Nyf53P59HV1SU/o/aDVtn7JAPOx3uVvT+7KNqY5lKf2GQyifb2dtfqvbiKaN//26/6VVvlbWt9L3Tb/t7+d6W6urqKlhtYiqumaTAMQ65D9XupbmfqlR03leQphUJhffY1rlBTJMnVVpKBtyuNgLWzezKZRDgclpdCnbglkuVuBKsncekQgNwpqnp7e9HZ2Wl53E8tqDskYGmnJs7Q8/l8RZVbEb+hoSHHg/OZM2dKro9qTE5Oyji5VjgnXkDPXxTfFb6/98OymtD7yT+DfvGKTKjFTXzG3FXXCoP/zjbLjtbe/aIa+/fvRzablTtA9RmX9i4SavcLMZ5YL+qNe+LmOfUqgM/nq/oymdr1wy3G4ukY9vfFtpnJZOR7Z86ckcNUamW4nL6+Pkvybe9+UYqmaUin02UPBPabIN3aJ+IsKub27hcrJboMqOstEolYqsvBYFCeyNifCe3z+SxtT6VScjsbGhqScRNJn9iW7N0vSik1z1JtXS57lXdiYgL79+8vednf43n7sW3BYNDyRKNdu3ZVVEm283q9GBwcrPo51pWcgA0PD8tqn67rlq4cPp/PMYbRaBSZTMZyM9vc3FzROnTaB9ifFFTqymOhUChKvNWbbN2eyGBP0Px+v+Ox12k8EQt1fxSNRhGPx2UXBCcj3zuHrt0fLBre/1c75A18fftvQ+rRGfle8ugz8uY9t6uDopuFuBpp735RDfEdt29HnZ2d8gTF3kXC3v2iv7/fcpVGXQdiP6wWlCrpCrMRNUWSXG0lGXi7z6pK/C0SNrcNwu2yv9N8otHoqj+SxU48ucOp6rqc9qnL3NfXJ6sHHo8HuVxO7iTHxsaqOsOcnJx0PBjY+zdXQu2T7CSfzzsmMYZhIPXoDPb3frjoPTXJ9bZvQu7JA+jc+6jsjpF78gC87Zuwe9et8ukWdoVzhxA//FTRONUSFUOxnOJRTMDbB1SxjhKJhNzpqZVGj8dTFIPJyUkUCgXLZXC3A7S9T7ITt+ri4OCgpT+cSk3y0+m0/H5PT09b1ufu3buLnm7hJhQKIZFIWJKZShIPcZCwJwTJZFL29xax7OrqgqZpMqkv1b7JyUnZTavSJLwaw8PDyGazMrkZHh629NVU+5AXCgXLPhSApWIUiUQs+0sRN6/XK7/voltEpRXfUvMs1dZyKk1WxaMyRXFDLbSoiaY4URNVb/VRY6Jri67rct9q36bsfZKBpe9gLSvjwNvdAcUVUfvJ59TUlHzihP0JMq2trVhYWIDX60Umkym60ig+Z1eqklyO6MKhaRoSiQQ6OzsdTxzUH12JRqOyHeKzbj/KYt/3q90pTXPpmc5OBZxMJgP94hXHxFUtjIQ+1YHE4bst3THEPSndXVvl0y3s9PNfkt04wgcnoJ//UtlYuZmcnCx6qlcikbB8d9XvWWdnp+VqWCwWQyQSkePa98fqI/3EeipXYHPqSmTfb643HrPcNaQGy+fzOHPmTMnuCsFg0LKTFc+G9Hq9CAaD6O7uRjweLzojjUaj6OrqsmwY9mmVmo9hGDhy5Miq9sVJJpPYvXu3POCKDVzslMVNK+JRd7VoXz6fR19fn6V/t6ZpiEQirtOuZL0BS+tg//79rgmEfXnFOGL92pcxGo3KA5Z6ELS4+lDZZW64TQ82dPbiQCu+G+q2n8lkZD/1dDq9oR4sv944PUJzLVETYqdDldP7or+u/X0nuVyuaN8jtu9AICC3edHX3+fzob+/H7FYzLLvUfdJ4vMiiavHd8Tn88nk3W0fK77Du3btwsTEBNra2uSxAVjaR4uCh3066nfcif3zYr8rTiZEBVPdB4uYiGHJZBIjIyOWYxewtM9JJpNoa2uT3SPVdot9kYg/sHSSYD8xCQaDGBwcLD62rPX9f4P3/W5K5Ubr2ZpPkolqbq3vJIE1u6Ok9WWtJ8lENbfW9//c968pTdHdgoiIiIhoNb2z0Q0gIqLG2IiXT4mIKsVKMhERERGRDZNkIiIiIiIb3rhHRERERGTDSjIRERERkQ2TZCIiIiIiGybJREREREQ2TJKpop95JSIiItpImCQTEREREdkwSW4CyWQS+XzeMiwajRYNaybRaBSZTMYyLBgMAgB8Pl8jmuRItEkwDKNoGBEREa0/q5Ik+3w+JJPJouHBYNA1Icrn8/B4PJZXJZLJpOO8gKXEzOPxwDCMonao46vJp1OCKtjbns/nXedd6n2fz1fUpnKGh4cxNDRU9nPBYLAojh6Pp2Q77TweT1FCu1LDw8OYnp6W7chkMujr6wMADA0NlT0B8Pl8jtuI27bilNiW2lbceL1edHd3N/UJChEREZXXsEqyYRgoFAoAUJRwGIaBzs5O5HI5mKYJ0zSRSCRKJsoiAY7H44jH4/B4PEWJVHt7O8o9FjoWi8nkUySGfr/fcX5TU1OWYWNjY+jt7S2/8IpgMIjR0VH09PSU/aw9Kcxms/L/paqbkUhExtE0TeRyOcTj8YYnesPDw4jFYgCAwcFBhMNheDwehMNhdHZ2Oia8IgaFQgF+v9+yXOqrnEwmg7m5OczNzVUUB/VkIx6PW9rX6DgSERFRHZirQNM0M5FIWIYlEgkzEonIf1XpdNrUNM1xOul02nU+kUjEzOVycvq5XM7M5XJF87YLBAJyfACOLzFd0Q71PdEm+zhiuvZxIpGIqeu6Zbr2v0Uc3Kan/r/cstnjK9oj4lJuM1CXsRbEsopXIpGwtMFt2RKJRMXLrY6jzktMX42JU4zs61isl0q2p1p46qmnzBdeeKHu8yEiIiJnDaskj4yMYP/+/ejt7UUqlbK819raCl3Xiy7xFwoFhEIh12kODAzgzJkzsrLnVAFWJZNJS0UWANLpNHK5HBKJBHK5HAKBABKJhGU8n88nK5bpdBrAUmVZrXybtmpmoVBAOp1GIpFAV1cXenp6kMvlZEVS0zQkEgkMDQ3JLgChUAimaSIQCCCXy2FyclLOf3BwEMBShXOlXSH8fr+lG4phGCUrpGpVNRqNWt6rpEuH1+uVFe1EIoGRkREEAgHHCrk6/VgsJmMQjUYr6qISi8VgmiY0TYNpmvB4PBgcHMTU1JScR6FQQFdXl6X7TKFQkOvfNE34/X5kMhkMDQ0hFoshn89X1Hfa5/NV1Id5fHwci4uL8u/XXnsNr7/+etnxiIiIqE5WIxO3V5JzuZylUhwIBIoqlfYKoK7rJecRCASKKrmappm5XK5ouL0SqFaSdV2XFe50Om2m02lZlbZ/3jSXqr1O7RfTc2qjOq1yRNVVxMte4XSqEtvnaf+MiIloh9/vt8TYXtWGUkmORCKWdaeu20AgIP8vpuG23nK5nGtlvFy1WKwbp3XuFBdRkS8XKztxZUFsB/Z5lNsmK5XJZIqqxo8//rh59uzZmkyfiIiIqteQJFkkoYJb9wp1fJGYlGO/HJ7L5WSC55Z81aq7hZ2alOm6LuMgElc12RL/t7cxEonIJNye+ImYiUTebdmclkdtczVJsn3cRCIh2yGWqRIihmJct3a6nWg4cesKEQgEZAKvnnyJrj5OSa+u63I8cfKktl3EoNR2W4njx4+bjzzyiPn4449bXqlUikkyERFRAzWku0UqlZI314kbtXRdd728XygU5CVzt0v4Pp8PHo8HnZ2dlmkvLCxU3K6BgYGim9zMP3Z3ULtuOHW3AKw/ymEYBtrb2+XfR44cQX9/PwDILgO6riMSiQCAvKyvyufzMAwD3d3daG1txfDwsJz/9PQ0CoUCDMPA6OiovAHOibpMkUgEmqaV7LZSjrjBTtzEJgwPD1u6TZTqjiDWqXrDohpv8X+xzMBSF4vBwUEEAoGK25rP5+H1egEsdb3YvXu37EojqOvBPi+xXF6vF5lMBh6PB1NTUwiFQohGoxgdHa24LU5aWlpw7dq1ouE33ngjtmzZsqJpExER0fKtepKcyWQsSZCaGI2NjQFY6vPq9qi0ubk5x+mKpEv0cxXTnZ+fR2tra9l2BYNBnD17FqlUquhxYuIpHOWYf+zzms/ncenSpaL3d+/ebflb0zTZH1vtFy2MjY1ZkkTRh3pqagrDw8MwDAOapsmkuxLDw8MV95N1k06nLetOjc/k5KSlT7a9z7Iqn8+jq6urqraX62dud+bMGQwMDFiGiadTCOp6AJZOcLxer2VeHo8H09PTME0TXq8X0WgU7e3tVbfHbu/evdi0aROuv/567Nu3z/LaunXriqZNREREy7fqSfLo6Ci6u7uLhvf19clEpa+vr+gRZYZhIJvNYv/+/a7TVhM/kWjPzc2VTGSi0Siy2Sz6+vqwa9cux0pyNT9uYf7xJi8AaGtrk8PVZFf8HQgEoOu6vJEtEAhYEl5RwRTETWherxf5fF7e7Fet4eFhZLNZecOfSOjPnj0LAJiYmHAdNxKJyAorsBRn9UdA1JMbn89nqabbjY2NWSraTjfuOT3XuhqxWMwSQ7/fL2+gjMViGB4eRiQSkesBWLqx0L6+1Kp2MBhEKpUqWb2vxn333YfLly/j4sWLNZkeERERrdyqJsn5fB7ZbNbxWcIiWcpkMgiFQpYnP4inP+i67prw+nw+S2IzOTmJ3t7ekklaMpmUz04W86+kklwoFCxdRZycOXOmZAU7mUwim81C0zTk83mZrFeSEHo8HgwNDclqbbW/UOf1epFIJBAOh2WXDvF3uR9tEZVoNTYisS8UCpauLgBcE8lMJoOuri75FAy1Am1/qUnuShmGgXA4jHg8Ln+1MJVKlTwxEEQlf3BwUF41KPdkEadfFnRy3333sXJMRES0ltSjo3MjqTdvOd30VYp4soWdfTz70y3UG9nsN6Q5tc1+42IkErHcCOb0pA/xNAinVWZ/UkS1VnszsMfZ/iQT+8v+NBCnmxvFZ91uogwEAkVPVVHj5vYMZjEeHJ6Kor7vZh1+xYiIiDYEj2lW8PNktK55PJ6KfqWOqpPP54v6lRMREVFzYJJMTJKJiIiIbBr2i3u0djBBJiIiIrJikkxEREREZMMkmYiIiIjIhkkyEREREZENk2QiIiIiIhsmyURERERENkySiYiIiIhsmCQTEREREdms2yT51KlTuHDhQqObQURERERNaN0kyePj41hcXJR/v/baa3j99dcb2CIiIiIialbrIkkeHx/H9u3b0dLS0uimEBEREdE68M5GN2ClTpw4gTfffBOzs7OYnZ2Vw3/5y1+itbW1gS0jIiIiombV9JXklpYWXLt2rWj4jTfeiC1btjSgRURERETU7DymaZqNbsRKnThxAjfddBPuuuuuRjeFiIiIiNaBpq8kA8B9992Hy5cv4+LFi41uChERERGtA+uikkxEREREVEvropJMRERERFRLTJKJiIiIiGyYJBMRERER2TT9c5Jpnbr6UKNbUN6mBxvdAiIiIqoTVpKJiIiIiGyYJBMRERER2TBJJiIiIiKyYZJMRERERGTDJJmIiIiIyIZJMtE65PP5kMlkEAwGG92UkvL5PKLRaKObQUREVIRJcgV8Ph+SyWTR8GAwCJ/P5zhOPp+Hx+OxvKoRDAYd5+nEbdqGYcDj8RQlIfl83jJteyJVy8QqmUwik8kUxUJ9lUuSjLmr8Gw+jOTRZ5bfjqPPwLfj6LLHLycYDFqWKZ/PL3tayWTSdbsqR8S6v78fu3btQjablW1KJpPy/5lMxjKefZsQSrUjGo3CMAxkMpmi6antcXsPAPx+f1XL5fZy22YzmUzRcol2uxGxSCaTjuuxku+HGL8ahmHU7YQhn8+XXA920Wi0ZLwriX013Paxoi1r/WSPiNandZ8kHzt2bNmvUgzDQKFQAICiA6lhGOjs7EQul4NpmjBNE4lEouJE2ePxYHBwEIB7kiISYDFNNfkRCZumaTBNEwMDAyXnNzw8LKi+K54AACAASURBVA/OwWAQw8PDFbWzEqdPn8auXbsQiURkLNSXrutlpzHxw58h0O3DyPfOVTVvz+bDyDx+YblNr5hYR+oydXZ2rihRXolcLodYLIZLly4hkUjIdsViMZimiXQ6jdbWVss4Y2NjiMfjlsQnmUxC13VLQiQSLcMwkEqloGkawuEwwuGw5QTBKalxOnH0eDxIpVJFw5y2+3Q67bgNmabpGovR0VHEYjHLMMMw4PV6iz5rGIZjohaNRkuuS/W7KF7xeNwST/vJk1PSr2maYyyqTbadLCwsyHUu1o3P53NNdoeHh4tiHAgEHGM/OTnpOM9SiS8RUTNY90kyABw8eLDqVzkTExPo6elBf38/xsbGLO+dPXsWmqZZqmSxWAyappWs5ojkFgA6OzsRj8ctSYpa/fJ6vdB13XLgCgQCCIVCAGBJHpwSAsF+cM5ms9A0bdmVTJVbMlKukmc38r1zGBzoAgDkn5tfVltih/agcO7QssYtRSQBaqLg9XqRSCQwNDRU8/lVorOzEx6PB2fOnLEkaiJJDYfDls/n83l0dXVZEqHBwUHMzc0VJUdi+zpy5Igclk6nLQmsW3XY7/e7Jl25XM7ytzgBVamJeLmrNGJZ1Uo6sJScqsPUxN/r9WJubs4ynYWFBbS3t5eteIuTwEQigXQ6jVwuJ09QxMmqGptQKOR4wuh0MmlP8pdjenoaN998M5LJJLLZrLwKVsmJxnpz6tQpXLhQ/5NnImp+GyJJdnL+/E/x/33uIM6f/+myxh8ZGcH+/fvR29uLVCplea+1tRW6rhclxIVCQSYZKpEcDw4OulbKTNNET0+P5XKs1+uVSWgwGHSt6Kh8Pp9MwKPRKAKBgDyYBwIBeaCuRZI8MTFRNG9ROdQ0DR6Pp+gzdiIp9t/Zhv6/2oGxiReKPhMdeAKezYfh2XwYwd7vL83rj10rwgcnkHn8QlF3i8zjF+Q49m4Yns2HLdMs1U3j9OnT6O/vLxoei8Us68NebbSfJKhVPXuiZq86liOuYPT29sqkKxAIyCQ1kUhYPj82Nla0Xfb19ckrEH19fUXbcrmrE+UEg0F5tQRYSqAHBwdLbnfVVpLVKnogEACAou9YOp2WnxfVcfH9iMfjCIfDGBkZsXSnEUm2k5GREYRCIQwNDckTFPVE1x6DcpXklX4PxcmC+M4BSwl9JfsKu0KhUHF7gsEgdF1HPB6XJ5L2Kwn2KvPc3FxFXThKfR9EX3zV+Pg4FhcX5d+vvfYaXn/99YqWg4g2tnWRJJfqa+nklV/9Ct/5h3/A4uIivvMP/4D/mJ2tan7ikqnf74fX60UgELDM1+/3I5FIWCpfpSqnk5OTiEQisgLo9urv75ddIdSDn3rgFu1wq7QVCgVZ5RLT2r17txxvYmKiqLuF/WBe6qUm8SMjI5bpFAoFmKaJSCQCXddlIlfK2MQL6P+rHQCA3k/+GVKPzljeTx59BlP/rMO8chjmlcNymKgap4/1IvSpDss4+efmET44Af38l2BeOQzf1s0yuRaMuatymvrFK67dNgqFAtra2kouAwBomiaTvEQiIRMWYKmyrlb11JOufD6PcDgsE99EIlE2URHbkaZp6OrqkutfbDPxeLxoHHsCqOu6PJFRu1OI7Vjts2rvblHuErvP58Pg4GBRddbv92Nqasp1+aqpJDsJBoOOFWrRDcHr9Voq3OKEsVAoYHJysqgCbieWW1SrnSrmKnWabpVkp/aq3Lq2COLESLQhFotVdRVH5fP5MDU1VdF+dnJyEpqmIZFIyEq42gUtnU4XbYepVMqy3E79s8t9H+yFiPHxcWzfvh0tLS3LWmYi2tiaPknO5/OWnW04HC57ELjh/e9H4u/+FgDw1b+O43986ENVzXNsbMxSPezr67NUxQDI/p/icqtIOEoRB0mRxIp/xeVblXrp2n45XBzs1Uu+brLZLDo7OxEOh5HNZmX1Sz042w/mpV4iwc5kMkXdDUQ1VVS1KrlJKfXoDHo/+WcAAG/7JgS6fZYb+Ea+d04m0QAwOfFZxA7tKTnNsYkXEOj2wdu+CQAwONCF7OkCjLmr8jN9+2+T/9e2bsb8wm/KttWNSCjEwVskDWJ4KpVCX1+f/Lxa6R0bG5NVYADo7e2Frusl+8iqFVdxWX9yctK1kgwsVZ/d+o2L7SgSicjPq9uEvbtFqe4BItFaWFgoSqbF31NTU0WJn1gOAI5tdKqMql1Nstls2eqp2D7FiYKo7AaDwYq6CJ0+fRo+nw+jo6MIBAJFJx7q99/pxji3PsnlblqrJJHu7u6Wf5fqflWO2LeMjo5WfZOh2t1kfn7pCpEaU3W7HBoawtTUVNE0qvk+nDhxAr/97W8xOzuLkydPytcvf/nLqtpNRBtX0yfJCwsLRcMuXbrk+Fm1YnzD+98PAJYE+ZVf/aqieaZSKcsBOBwOl0xcRAVV07SSVTZxkBSXe8W/4XAYnZ2dls+qlxztTzCoplIkknF7UuTUhaAaoVAIu3btKhouErFKbtgT1Vvt9m/Lrg/Z04WiG/jaWt9bVduMuasyQQaAmz9wfVXjq3w+H6anp4vnoayD+fl5S+UYgPxbfM5+I51KXb/26agymUxRVdfpFY/HLUn58PAwbr75ZscEzePxyG1veHhYJlhq9xH7PEttf4VCAV6vF6FQCKdPn7bcyAa83YXIntCKpBIovkrilkw6dbfIZDKW5G5+fh4333yznLdT4j85OYmBgQEcOXLEdbmAt/uli39LVZLtN8ZFIhE5T/v3sVRy7/f7y15ZOHPmjLxiI/qfr9Tk5CTa29urujlVvSJ1+vTpovftV2Tc9hGVfh9aWlpw7dq1ouE33ngjtmzZUnG7iWjjavok2Sm5EAc91fnzP8Xf/l3CtWvFK7/6FeJ//dWyfZQzmYzjXd6BQEDewOf2+Dafz1fU31QYHh52vXtcTF+t0Kk3/qjjVXqTz9zcnDy42rt52BPyWhKJWKmDmzA69jzSx3pltwfzymHo578E/eIVyw181VZ5ve2bLFXjS794rarxVd3d3Y4Vr7Nnz8qkrq2treiAL/4WSafTyZ7gtF043UjmdDOY28up+uhWSXbbrsTn1YRSrTaXMzk5ib6+PiSTSUxPT7tuu8FgUN5YKE7i7DesmqZZUYU0FAqhq6tLbvv276PoG64m/slk0nJyYHfp0iW0t7cXDXc6ibWPL5L/9vZ2hEIh2Z9ZzKvc1ad8Pm854XHS29uLnp4eBINBDA0NOd4XsRyxWKziR/jl83lks1nZzcp+5Q14u7osuO0jKv0+7N27F5s2bcL111+Pffv2WV5bt26tqN1EtLE1fZIs+v8K6XTa8WAp+iAP/K8YPnnPPnzynn0AIP9/8PP9so9yKaOjo5ZLl0JfX5/sS9rX14d4PG6pshiGgWw2i/3797tO237XvfpySmrUZ9CK/qaVHDQ7OzuRSqXkNJ0qyfWgVurUrhlOjLmryJ4uYNftt1in8ccuF+IGvv6/2mGpLEcHnpD9i7Wtmx2nvb/3w5buFfbuF9UQiZ1axTQMA+FwWN4UJpISsa7s3S8ikYglaVC7D+3fvx/ZbLbo0WGVXC2wVxidbmpSuVWSPZ6V30DmpqenB/F4vGR1c3JyEqFQSFYih4aGMDk5KZPIam9CC4VClu+Tur8QV33UxF+sY7WSrlpYWMDu3btlW8W/oouKus2L8cV9FF1dXUXft8HBQXg8HvT09JTsKgUs7f/KJb1erxeFQgHd3d2WbalQKFTdr7sapbYZpye/qNv94OCg49Wsar8P9913Hy5fvoyLFy9W23wiouZPkgFr/1+3A8YXv/AFtLS04NjDI/jhP53ED//pJADI/x97eAQtLS344he+4DofUQ1xutlMTYRCoRByuZylQqtpGnRdL1l5KVVJth9wMpkMpqen5XxFf1OnJxWofD6frOYIq1FJdkvA3KpFR/7+jGvi2rf/NnkDX+zQHvT8hSa7Y0z9s47Jic8CAHr+QpNPt1D572xD+liv7MahjrMchULBknCIm/TU9aDruqxMiu45wvDwsOXpFupJn9/vRzqdlutI3LRUqmqqJpOqqampohvwVKUqyZUkyaK/uVN3Cbc2igrx9PS0601/IhkWT6aYnJyEz+ezJJFOy2Pvk+yk1MnG6OhoRQnk9PQ0/H6//OEScfIai8UwPDwsT2DVExSxz7J/V30+H86cOYNcLgdd15d9k52dOIkzTRNDQ0PyB2vUdVxr3d3d8ukWfr8fgUBA3pshTgrPnj0rPx+JRCwnZU5XFsp9H5xOBO+77z5Wjoloecx17uGHH5b//+Urr1je+8T/c4/lb/V9dbzVAsD1pWma63iBQMA0TdPM5XJmOp2Ww3O5nJlIJErOM5FImLlczjKskvEqoeu6GYlE5L+lPlPkyuG1/1qDNE2T24ObXC5XFHNd15e9/aXTact2Z5pL25UYV2xfuVyuaJidGM9tfpFIxARg6rou5+00Tfs2rMZEbYf6GXU4gKIYuQ23b+P26Yi2RSIRx+VWl0Esl1DJ+ixFrFe3eFdjJe0gImpGHtOsQwlhDTl27Jjjj4P8x+wsBv5XDMceHpE38VUyHq2Sqw81ugXlbXqw0S0gIiKiOlkX3S2q9R+zs/jbv1u6pB3/669W/FQLIiIiItoYNmSS/D8+9CHZR/mLX/iCYyWZiIiIiDaudza6AY1y++0fwf//yLFGN4OIiIiI1qANkSQfO8ZkmIiIiIgqt+5v3FuJejw7lIiIiGija4b0c0NUklfiWy/ONLoJTe3L23YyhjYbISYbYRnXGsZ8+Ri72mEsa2u9xvPL23Y2ugkV2ZA37hERERERlcJK8gp96YYnGt2EIt9+5WONbgIRERFRU2MlmYiIiIjIhklyDXk2H4Zn82Hkn5uvarxg7/dhzF2V//dsPlyP5hEREdE69tZrv8Ubsz/HG7M/x1uv/bbRzWl67G5RI2piPDbxAvx3tlU0XnTgCWRPF+TfkxOfrXnbiIiIaP37r6u/we/1ebz1u9/j3QCuu/49jW5S1cbHx3H16lVs2rQJn/70pxvaFibJNTI28QIAIHJgJ1KPzmD4iLVfcHTgCaQeXbpDVdu6GYVzh5A8+szbw27/NnJPHsDQkWlkTxdgXlmqJmcev4DwwQk5HTHcmLsK7fZvy/kBQKDb15RJ9ncPHsKL+WdLfmZLWysGp046vvf0seO48vJl3PtgvOL57dr3cdz+sZ6K2iPuLP7uwUP40J13VDWv5VpOTBZfehlfv/sey53QP3goAe2Oj7guqzq/UjGph9Va70M9+7D3S5Gyy/aDhxJ4Jj1hGXb/N7+B2z/Wgy9v24m/eeqf0HLrLa7jV9Iep3VUanitrdZ2tZZiXiuruZ8S38f3feAGjH31IddpOo2zlvdrbm1xUqv923qPpfDG7M9x3Yc+iHe13Yx3td2M/3zu+VWdfy1t374dr7/+OgzDaHRTmCTXSurRGUQO7ETX7g8i9egMMo9fQOhTHQAgk+Hckwfgv7MNns2HEez9PiYnPou5+V8j9egM9PNfgrd9k2WaIkFOH+tF6FMdsiuGSJQBYOqfdZhXDiN59BnEDz+1VNH2ruqi18Shxx6Gd8dt8u/vHjyEnsgBTKUeRU/kAMa++tCypz3Usw+vzi9Yhr2YfxbHv/I1yzB15yva8+VtO2Gcex5HP/N5OR4APJOecExo3nrtt/jDL14FALzzA1vwjhWcxVcbk5//679hm/+jFU17OTGph3qud2DpILql7VZ88M+3uz5ySCzjvQ/Gce+DcdcDb6lkrVLPZ5+ueB2pmmW7AtZezGup3ttrNZp1v2Zvi1Dr7bAazR7L3/3Li/iv167hug99cMXTapTx8XHcddddaGlpQUfHUu60sLBQZqz6Y5JcA5nHLwAAunZ/EKFPdSB8cAKjY8/LJPn09EVoWzfLLhhqklvK6Njz0LZultMZHOhC9nQBmccvYNftSwePnr/QAABtre+t6TKttos//Ve5kxHEzsZ+oHSrQqgVqW3+j+KBY0fl3+UqUvaDub09YucsqgT//sxzjtOp5aWuamICAGdP/hgv5p+Vy3L/N79RcvrVxqQe6rnezz8xhX9/5jlZOSqX8KvL+0x6Ase/8jXsCffK6Yv3/+apfwIAfP3uexynY6+MqsnA7HM/wa59H3eN7Ze37SxKHoDm2a7WYsxrqZ7bq32b2LXv4wCAV+cXLO+pMW3G/ZpbW4DabYcbKZZvzl/CH678Bte1fgBvzP5cDn/r9d+vaLqraXx8HNu3b0dLS0ujm1KESXINjI4tXdYQyazaBQIAChevLGu6buPNL/xGJsl2C5f+T1NWkrd+5M+LLqPt+HgA3h23wTj3fNEOR1ySBYovjZ1/YgpnT/5YfnZw6iTOPzHleoDdE+51PJh/YuCL+NGR7wB4e+ftdomwHpe6qomJce55vJh/Vu7ov3vwUMlpLzcmtVav9b740st48tspDE6dxHcPHkLLrbeUvfy5zf9R9EQO4NyPs9Du+Aj0n/wU2h0fwb0PxuUD/Yd69gFYOojb41PucrpYRz2RAxV3t2im7WotxrzW6rmfUqerxtmtC0ez7teEeu7fNlIsf/czHeYf/oDf68UPDPD8t3fVZB71dOLECbz55puYnZ3F7Oys5b1r1641qFVvY5K8QsbcVXnjnf2pFKLLhW/r5mUlym7jNXvV2I04U9/S1oo/3XMnfv2LV/CDhxJlx3sx/yxenX+pbP/HPeFe3PtgHOefmIL+k5/i3gfj8iArLL70Ml7MP2vZ0Z37cbZklaCel7oqjclU6lHL36/Ov4T3feAGAMDxr3wNH/zz7Y5VkkpiUm/1WO8tt96CwamTePrYcbw6/1LJ6q1adRSVIVHt0+74iOO0l0NdR+LybKnqVbNtV2sx5vVQ7/1UtZpxvybUe/9WrWaM5Xv23I7//MkF/MkdHTXpurHaWlpaUCgUsGnTpqL3brrppga0yIpJ8gpN/PBnACD7DQuezYdll4vurq3Ini4g/9w8/He2wbdj6fJa4Vzps+G+/bchfHBCJttDR6YBLFWsxSPj1qvNt9wE/Sc/xTPpCRx67GHXS1fnn5jCNv9H8aE778APHkoUVZTUvmKA9VKn/f+HHnsY773h/ZZqQ7mD32pe6nKLidhpH3rsYXz97ntw6LGH8er8Arw7bsO5H2dx/ze/ga/ffY9MyKqNST0uW1e7jHbl1juwVGX80ZHv4BMDX8TtH+uxJCduFchDjz1sqWoCS/Hd0tbq2AZ7n0Xg7Riq29HiSy/LYQDg3XEb9oR7cfrR7zu2vRm3K2BtxXw11HJ7tXfPcOoiIJZvPe3XhFpuhxsplu+4/j34kzs68Pq//G+8x39HTaa5mvbu3YsTJ07g+uuvx1133dXo5hRhkrxCI987BwCWBBlYetJE9nQBxtxVxA7twdz8r9G59+2zYdEveX/vh5F6dAba7d9G+livZRqhT3VgfuE3CB+ckE+4qLQ/czNSL2cZ556XB9tSnvx2St5FP9SzD+efmLK8791xG7714oy86/gvD96Pp48dBwD5/2f/8aQlmbH3W9vS1ipv6lB3vIsvvYzrfmbU9VJXJTFRL0Pf/81v4OhnPo89Yeu2dOixh5H63P/E4NTJqmNSb/VY74svvYxn//FkURyW4zev/Apb2m4FAMvNPbd/rAdXL/8CPzrynaJLsUM9+/Cne+6Uf7fcegseOHZUdh0AgO4Dn8XX774H3QeKn0hT70uo9diu1lrM66Ue2ysAyz0U5boINPt+TajHdghsvFi+4/r3NGWCLNx33304ceIELl68iK1btza6ORZMklfIrRpsfxTb8JGPFT0WDgD8d7ZZEl97sh07tAexQ3uKxvO2byoaT4z77Vcqb/9aIyoAYie49SN/XnSpTRB30Ytq1f6/fRBHP/N51xs6fnTkO7L/mPgbgKVi1XLrLdgT7oV2x0fwvg/cgKnUo3jg2FHZPxJY2pmPffUhtNx6C9563/vqfqmrmpjc/rEeHP/K17Dj4wHLcO+O2/Cne+6Ece55S2W4kpishlqvd3Hpv5LL4CqnS/+//sUrrpdy//Lg/bjy8mUM9eyTB9HvHjyELW23lu0nK7a157NP47bAX1reW41LqPXYrtZ6zGulXvspUYkHlp788ZtXflW2Lc26XxPqtX/biLFsZvfdd1+jm+CISTKtCed+nMXRz3wehx57GD2RAzj6mc/jEwNflP++Ov+S5fP6T35quYseWNpRbvN/VF6ytXPqOrD40stIfe5/Fn1WXNJVHzlkrxwA9b3UVW1MgKVq2icGvujYRcIpgagmJvWwGuu9UqL6ZH8cmfjbrQuAeISZ/TJuJcQ6Ed0xhGbfrirViJivRL22V3Hj5icGvohDjz0sE6zfvPKroqql/TvbbPs1oV7b4UaMJdUPk2RaE0QVSe0bJs7if3TkO0UHSnEHvN0Dx47i/BNTRUmHfdoq+7QXX3oZhx57GMDbN4zc/81v4OzJH8uKQeSRv5efr9elrmpj8uVtO7En3Iu/PHh/xfOoNCb1shrrfTmOf+VrOP6Vr+ETA1/EM+kJxy4Rwvknpix9F1+dX8D5J6aqvkHLvqzNvF0tRyNiXq16ba+iS4FI8MT+Byh/AtBs+zWhXtvhRowl1Q+T5BX69ivFXSioOmr/sZVQb+pR+7WJs3u3m9CePnZc/roXsHTn9HtveD++fvc92Ob/qOUmEDEtsfOt101t1cREHAzUx02VU01M6vVkgXqvdyfqL7ypnxUxFMPFZdOnjx3HnnAvfv6v/yaf4Wv/vNPjoX7wUEK2qdx2In7IoF4/lKCq93blZC3GfDnqvb1W8sQTVTPu14R6b4cbKZZUXx7TNM1GN2Kt8ng8q/Ks2PVM7adFSzZCTDbCMq41jPnyMXa1w1jW1nqN55e37UQzpJ/vaHQDiIiIiIjWGibJREREREQ2TJLXiPNPTOHL23Y6Pj+zlLde+y3emP053pj9Od567bd1ah0RERHRxsIb95rcf139DX6vz+Ot3/0e7wZwHZ/DSERERLRiTJJrwP6zluodrfafUVU74KsPO3f6lapSz3N8Y/bnuO5DH8S72m7Gu9puxn8+93ztFoiIiIhog2N3ixVafOll+TOZ33pxBnvCvTj6mc9j8aWXZYJ8/ze/gW+9OINt/o/KxHfxpZfxoyPfkePZn+861LMPW9pa8a0XZ+QD1sVnfvcvL+LNX5b/9SAiIiIiWh4mySv083/9NwCQP5N574NxfOvFGbTcegvOnvwxtrS1ymc79kQOAFiqLtvH27Xv43Ka4rfhP/r/7gMA+ZO1z2efxpvzl/CHK7/Bu258v+yL/Mbsz/HW679fhaUlIiIi2hjY3WKFrl7+het7Tj+rWW4cAPI35u2/Iw8Av/uZDvMPf8Dv9fmi8Tz/7V3lmktEREREFWCSvEKbbvqA63tb2m51TJRLjQMA773h/QCWfo3J/hOcb732W/znTy7gT+7owDt4kx4RERFRXbC7xQp98M+3AwDO/TgL4O2frzTOPY9d+z6OV+cX5GPdxG+83/6xnqLxzp78sZxmy623YEtbK579x6XfmBePhzPOPY93XP8e/MkdHXj9X/736iwgNcR3Dx7Cl7ftlC91+NPHjuMHDyUa2DpqZosvvWzZpsoNJyLaqFhJXqGWW2/BoccextHPfB7PpCcAAPd/8xvySRRXL/8Cx7/yNfmEC/F0i5Zbb8H93/wGjn/la3gmPVH0dIvBqZOWBEmd5juufw/e479jVZaPGkc80UScIIknqLyYfxYA8Ex6wvHnSt967bf4wy9eBQC88wNbeMWBLJ7PPo1t/o9WPR63KyLaaJgk14B3x22uv63+lwfvL+oyIdz+sR55Ux+wdNOfaj3+XjtV7uJP/9XyaEGR2Hzozjtw5eXL+PdnnnMcj8/OplJmn/sJdu37uGvV+MvbdhY9chLgdkVEGw+TZKI17BMDX5Q3b4oKsvjXjs/OpnKMc8/jxfyz6IkcKDoJX3zpZXz97nuKhnO7IqKNikky0Rqz+NLLeDH/rCUZPvfjbMlK8u/+5UX812vXcN2HPrjq7aXmIe6LAN7+EaS/eeqf0HLrLY6f53ZFRBsZb9wjWoPED8mIH6gphc/OpkqIHyPa0tYKYKmb2J5wL04/+n3Hz3O7IqKNjpVkojXo1fkFS5/RLW2teHV+AYC1u8XiSy/jup8ZfHY2ldVy6y144NhRDPXsk8O6D3wWX7/7HnQf+GzR5/lMdiLa6JgkE60xLbfegj3hXmh3fATv+8ANmEo9igeOHcWXt+2U/UWNc89j7KsPoeXWW/DW+97HZ2fTsoht7fns0/KXPYX37Lmd2xURbWhMkonWKPHYQPVxXfbqMgDLs7P5aECqlniqjuiOIXC7IqKNjn2SidagxZdexqHHHsahxx6Ww+7/5jewzf9RWU2OPPL38j0+O5tqQZx4CdyuiGgjYyWZaI1ZfOllvDr/Et57w/vx9bvvwTb/R/Hdg4dkX2RRTf763fc4Ps+WqFpDPfvw6vzCsn5khIhovWKSTLTGtNx6Cwanln6SnD8oQ7Umtq1yw4iINjp2tyAiIiIismGSTERERERk4zFN02x0I9Yqj8fT6CYQERERrTvNkH6yT3IZzbAS1zKPx8MY2myEmGyEZVxrGPPlY+xqh7GsrfUaz2YpQrK7BRERERGRDZNkIiIiIiIbJslERERERDbsk1xDwWAQhUIBhUKhos97PB7kcjn4/f66tisajQIAhoeHVzytYDCI7u5uxGKxovcWFxdhGAYAwOv1oqWlZcXzI3LCbW31MebLx9jVDmNZGuNTW0ySa8QwDJkc5/P5uie+jRAMBpHNZtHd3e34/uXLl3Hu3Dlcu3YNAPjlpLrhtrb6GPPlY+xqh7EsbT3EZ3x8HFevXsWmTZvw6U9/uqFtYXeLGpmYmEB/fz/6+/sxNjZW9L7H45EvAPD5DyyMVwAADOZJREFUfACAzs5OedZXin18YCkxdxoOLFWPnYYDS8mueC+TyVS0fB6PB93d3dA0rei9mZmlX4Xr6OjAAw884PiZctT22l/BYLDq6TU7t1jYXxtNLbY1qg5jvnyMXe0wlqWtp/hs374dO3bsaHQzADBJrpmRkRH09vait7cXqVTK8p7P50M6nYZpmkgkEohGo7LqnMvl4PV6S07baXwA6OnpQSKRgGmaiEQiMpnMZDJIpVIwTROmaVraI8Y1TRO5XA7hcLiiJN00TccuFqdOnapo/Eroui7brL5KxWdxcREzMzOYmZnB4uJiTdqxFjjFIRAIFA1zsl5jUsttjSrDmC8fY1c7jGVp6yE+4+Pj8njV0dGBnTt34rrrrmtwq9jdoiby+TwAyGQuEAggk8kgFAohn89D13WEQiEAQCwWq2pjdhtfDBeJ68DAADRNg2EYmJ6eRiQSkdNQ/z81NYXR0VEAgN/vRyAQwMTEhGMCXM6FCxdw+fJlbNu2TZ7FApCXearlduYbCARcx1kPl5bKMQxDxqaSfuzrMSa13taoPMZ8+Ri72mEsS1sP8RkfH8f27dvX5LGKSXINjI2NQdf1osvfIrG1K1c5Lsfr9eLs2bOu7xuGYZlHe3s75ubmACxVazs7Oy2fd+tjXE4+n8cbb7yBc+fOFb337ne/u+rp6bruGBtR/VbNzMxg586d6OjoQEdHB06ePFn1/NY6kRxrmoZcLoeFhQWEQiHZN9yeLK/nmNR6W6PyGPPlY+xqh7Esrdnjc+LECbz55puYnZ3F7Oys5b21kOgzSa6BVCplSVhEclPPyx+tra2u79kTTZEgA0vV2tHR0ZrcWHjvvffiySefxN69e2tyBlhpJfnUqVNYXFzEzp07VzzPtUhNjkWXCnG1AgAmJycBLPUtHxwchN/vX/cxqfW2RuUx5svH2NUOY1las8enpaUFhUIBmzZtKnrvpptuakCLrNgneYXEjW9q0un1emU3BjFcJDnJZFLetFcJt/H9fj80TUMymQQAHDlyBJqmwev1Yv/+/UilUjJJV/sk9/T0YGhoSP5dzc17di0tLdi7dy9OnTq1rPFVw8PDjv1wTdOUSSHw9qUlr9cr+93OzMysiTPOWvF6vTBNs+yjBCcnJ+H3+zdETGq5rVFlGPPlY+xqh7Esrdnjs3fvXmzatAnXX3899u3bZ3ndddddjW4ePOZ6/FHwGqnkN9ODwSC8Xm/RM4iTySTi8ThM07T0KQUgp+l22dzObXy34er8gbf7JIs2ivkCQCKRqKo/ss/nQ39/f8XjlIthPp8v6v7hJp1O49e//jXeeOMNxw79fr8fHR0dFU2rkSrZrsTnShHdU7773e+uuZhUsozRaBTt7e1yW/L5fPIqh9i2uXuqHGO+fIxd7TCWtVXp8aLZ2JfrxIkT8Pv92Lp1awNbVYxJcgnrdeNcTcuJoWEYOHLkiOOPnywuLjb1pSWg8pgEg0FLFV0VjUYxMDAAr9e7JmPC787qY8yXj7GrHcayttZrPJtludjdYg1Qn1tsf6l9UevF/rxl9VVN15CVUp+HnEqlLO0QN+81+6WlemBMiIiIao+V5BKa5UxnLas0hj6fDz6fD5OTkyUryetBrbtbrEX87qw+xnz5GLvaYSxra73Gs1mWi0+3oIYS/c90XcelS5csiaH9R1nK9d1ebwKBQMnuFkRERFQ/rCSX0CxnOmsZY1hsI8RkIyzjWsOYLx9jVzuMZW2t13g2y3KxTzIRERERkQ2TZCIiIiIiGybJREREREQ27JNcQrmnCxARERFR9Zoh/eTTLcpohpW4ljVL5/zVtBFishGWca1hzJePsasdxrK21ms8m6UIye4WREREREQ2TJKJiIiIiGyYJBMRERER2bBPcg0Fg0EUCgUUCoWKPu/xeFblV+TEr7Ot5GeefT4fdF0H4P5LcIuLizAMAwDg9XrR0tKy7PkRlcJtbfUx5svH2NUOY1ka41NbTJJrxDAMmRzn8/l19fPJ0WgU/f39iMViAJYS5mQyKf8WLl++jHPnzuHatWsAwC8n1Q23tdXHmC8fY1c7jGVp6yE+4+PjuHr1KjZt2oRPf/rTDW0Lu1vUyMTEBPr7+9Hf34+xsbGi9z0ej3wBS4kmAHR2dsqzvlLs4wNLibnTcGApsXUaDixVvMV7mUym7LyHh4ctCXFPTw/m5ubk3zMzMwCAjo4OPPDAA9A0rew07dT22l/BYLDq6a0HjEmxWmxrVB3GfPkYu9phLEtbT/HZvn07duzY0ehmAGCSXDMjIyPo7e1Fb28vUqmU5T2fz4d0Og3TNJFIJBCNRmXVOZfLwev1lpy20/jAUrKaSCRgmiYikYhMnDKZDFKpFEzThGmalvaIcU3TRC6XQzgcrihJVxmGgfb2dgDAqVOnqh7fja7rss3qq1R8FhcXMTMzg5mZGSwuLtakHWsJY/K2Wm5rVBnGfPkYu9phLEtbD/EZHx+Xx6uOjg7s3LkT1113XYNbxe4WNZHP5wFAJi6BQACZTAahUAj5fB66riMUCgEAYrFYVRuz2/hiuKjwDgwMQNM0GIaB6elpRCIROQ31/1NTUxgdHQUA+P1+BAIBTExMFHWdcJNMJpHNZjE5OYkLFy7g8uXL2LZtmzyLBSAv81TL7cw3EAi4jrMeLi2VwpgsqfW2RuUx5svH2NUOY1naeojP+Pg4tm/fviaPVUySa2BsbAy6rhd1bRCJrV25ynE5Xq8XZ8+edX3fMAzLPNrb22X3CF3X0dnZafl8d3d3RfPNZDKIx+PyBr58Po833ngD586dK/rsu9/97oqmqdJ13TE2ovqtmpmZwc6dO9HR0YGOjg6cPHmy6vk1A8ZkSa23NSqPMV8+xq52GMvSmj0+J06cwJtvvonZ2VnMzs5a3lsLiT6T5BpIpVKWp1QYhiGruvXS2trq+p49qVL7D2uahtHR0apvLEwmk4jH45Zf/rn33nvx5JNPYu/evTU5A6y0anrq1CksLi5i586dK57nWseYLKn1tkblMebLx9jVDmNZWrPHp6WlBYVCAZs2bSp676abbmpAi2xMclVJeNLptOPnAoGAmUgk5HRyuZxpmqaZSCRMTdOKhpdrh9P4mqbJeUQiETk8l8uZAExd1+X4kUhEfi4QCFimnU6nyy6jmLbdq6++amYymZJtr6UXXnjBPH78uHn27FnLSwxrBhshJvXYtZTb1jY6xnz5GLvaYSxrq5J4NmN81OU6fvy4+dRTTzWwNe48prkOfxS8Rir5zfRgMAiv11v0DGK18ioqy4KYZjAYRDabLfusZLfx3Yar8wfe7pMs2ijmCwCJRKJsf2T1GcmC27OS7crFMJ/PF3X/cJNOp/HrX/8ab7zxhmOHfr/fj46Ojoqm1UgbISaVfHei0Sja29stjxYUVznEts3dU+UY8+Vj7GqHsaytSuLZjOzLdeLECfj9fmzdurWBrSrGJLmE9bpxrqblxNAwDBw5csTxx08WFxeb+tISsDFiwu/O6mPMl4+xqx3GsrbWazybZbn4CLg1QH1usf0lnpxRT/bnLasv8Tzn1aA++zeVSlnaIW5Ua2lpwd69e3Hq1KlVa1cjMSZERESNwUpyCc1yprOWVRpDn88Hn8+HycnJklXT9WAjxITfndXHmC8fY1c7jGVtrdd4NstyMUkuoVlW4lpWLoai/5mu67h06VLJvrjl+m43i40QE353Vh9jvnyMXe0wlrW1XuPZLMvFJLmEZlmJaxljWGwjxGQjLONaw5gvH2NXO4xlba3XeDbLcrFPMhERERGRDZNkIiIiIiIbdrcowf4z00RERES0cs2QfvJnqUtohhVIRERE1GweeeSRZY/7uc99roYtccckmYiIiIhW3XKS3ZUk19Vin2QiIiIiIhsmyURERERENkySiYiIiIhsmCQTEREREdkwSSYiIiIismGSTERERERkwySZiIiIiMimYUnyqVOncOHChUbNnoiIiIjI1aolyePj41hcXJR/v/baa3j99ddXa/ZERERERBVblSR5fHwc27dvR0tLy2rMjoiIiIhoRer+s9QnTpzAm2++idnZWczOzsrhv/zlL9Ha2lrv2RMRERERVa3uleSWlhZcu3ataPiNN96ILVu21Hv2RERERERVq3slee/evThx4gSuv/563HXXXfWeHRERERE1gUceeaTRTSjJY5qmuRozOnHiBPx+P7Zu3boasyMiIiIiWrZVS5KJiIiIiJoFf0yEiIiIiMiGSTIRERERkQ2TZCIiIiIiGybJREREREQ2TJKJiIiIiGyYJBMRERER2TBJJiIiIiKyYZJMRERERGTDJJmIiIiIyIZJMhERERGRDZNkIiIiIiIbJslERERERDZMkomIiIiIbJgkExERERHZMEkmIiIiIrJhkkxEREREZPN/AbUYR1z5mdGAAAAAAElFTkSuQmCC;" vertex="1" parent="1">
          <mxGeometry x="360" y="190" width="713" height="208" as="geometry" />
        </mxCell>
        <mxCell id="Z-Km8hzNeSPZJjLTvg0I-3" value="" style="shape=image;verticalLabelPosition=bottom;labelBackgroundColor=default;verticalAlign=top;aspect=fixed;imageAspect=0;image=data:image/png,iVBORw0KGgoAAAANSUhEUgAAAo0AAACvCAYAAACYVuRZAAAgAElEQVR4nO29T4gjWXbofTR4Ozz3H+jPSVIvSxGrN35gGLp4lENaJB6FGMODMWmQktdYNI+CiIVnk0gbgcugTQS56oUExWD0aJMRzSQzYLCRcoZcKGIKU8bDAzfetCJaFEn11+Cpee+bHmYxi/gW6nPzxI0bf5SprMyqPj8IKhV/7t9z7z333HNv1ZIkSYBhGIZhGIZhJH784x/DX/7lXwIAwLduOS0MwzAMwzDMawArjQzDMAzDMEwprDQyDMMwDMMwpfzBbSeAYRiGYRiGubv8+Mc/BgCAGm+EYRiGYRiGYcrg5WmGYRiGYRimFFYaGYZhGIZhmFJYaWQYhmEYhmFKYaWRYRiGYRiGKYWVRoZhGIZhGKYUVhoZ5jWl3W7fdhIYhmGYbxBvhNKo6zq4rpu53263Qdd15TdhGEKtVktdZdBB2rZtiOM49zcSxzHYtl0lGyl83wff98XfclppvlR58X0fXNfN3FelkWLbdup9WTFxXVdZpvL9drt9pXzLhGEo6lZVDrVaDcIwzHxHy911XfEODU+G1qH8nuo7VbmrypmGK9cJlm+RnOTlez6fK+9XoUzhVD1nJZVhGOabzRuhNKqI4xiWyyUAQEapiOMYGo0GBEEASZJAkiTgOE7lARcAYDwep5SSZrMJ9Xq90rey4lBFufI8T6Q1SZKM4uY4jnjmeZ64T/NoWVZhHLquQxzHqXiWy+WdUhbkcnAcR/ne6ekpHB4eXjkewzAAYC07cRzDaDSCfr+fec9xHPA8DzzPA8dxIAgCUc6qcuv3+6n0Iy9evIBms6lMS6fTSX0j59uyLGWY7Xa7cAKQRxiG0Ov1cvPAMAzDfDN5Y5XG09NTaLVa8OjRIzg5OUk9e/bsGWiaJhQDgPVgrmmasO4VgYMxWnoGgwF0u92UhQmtUJqmwWQySVkAAS6VuSiKlGF3u10R5mKxKE3TYDAQcXS7XXG/0WiI+5PJJPd7tKLNZrPU/bOzM5jP56UWyptA13VoNBoibwAgygSvwWCg/Pb8/DxVv5uAlr3BYACNRgM0TRN1nWelvC5Pnz7N5E01mUBL8MHBAZimCUmSQLPZVCqFs9kMkiQR7w2Hw1wrJWU0GkGn0wEAgOFwKGRW/qasrfz85z+HTz/99DrFwjAMw9wh3lil8cmTJ3B4eAgHBwcZZWl3dxeiKMoMesvlUgyWFByo5/O5sPB5ngdRFIFlWRBFEZimmbLkGYYhlEK0AgZBUJpuHOgtywJN04RSICsUaEVFMA5N08DzPFgsFvDw4cOUFarI0vjkyRN49OhR5n69XockSSpbUbfJcrmEIAhE3gCqWRqpBZgqf7VaLaWEYv2jgj+ZTEDTNFgsFinLoeM44ropzs/PRZ4wzvF4DABryzjWe7PZzNQHWiKHw2GuOwZAWibz5MJ13ZRy2Gg0xCQElU+85LbyySefwK9+9Svx+ze/+Q387ne/20r5MAzDMLfPK1Ea6XJsFUvedcHlaMMwoF6vg2maqXgNwwDHcVKKWJElbTweC4sNKmudTgeOj48BYG25HA6Hym9fvHgh/r64uKiU/jiO4ezsDB49eiQUoLLlaYC1lTKKIlgsFtBsNqHRaMBkMilUJJAoiuDevXuV0rcNwjC80tJnmaWRuiLgUjAqf1Qho0oPKlM4AcBl4tVqlQr74cOHG6dXhWzho8vBAGs5oXXx4sULMSGg+Zctf0+fPs1MJjZFXj5HJdN1XVgul7mW0E8++QS+853vwDvvvHOt+BmGYZi7yx/cdARhGKYG9m63Cw8ePLhRy9XJyUnKatbr9WA4HKYsI/1+X/io6boOmqYBAKR8woqgS3rUknl0dJR6T1YAqnB8fAyj0QgAAO7duyeUwDLG4zEcHx9Ds9mE3d1dME0ThsMhXFxcbLy87Lpuqt4cx1H69F2HqgrO+fk5nJ+fw2w2U1qCKScnJzAej6/ti4fWNdlKTa2NvV4v416AFJW3aZopN4B2u536vVgsUnKEy+y6rueWWRiG8PTp09w4KbL/pJxWebka05tX/x9//DH8/ve/h88++ww+++wzcf/LL7+E3d3dSmliGIZh7j43bmlUWdeo9e0mmEwmGR+/KIqUu2wB1soLWnKq+KwNh8PUxhO8TNPMKMOLxQIePHggfpcNor7vw97envjd6XQqLU8DrJdlJ5MJLBYLaDQaMJ/PodFowGKxKN1so2kaPH/+XPymFidUqAGgUAGuYtFEDMOo9D7mo9fr5e5UppZiXNIFuHQryFueziuTTqeTWYpFS+TBwYF4bzqd5m6EoekoYzabgW3bQj7jOFZOqmRLH70ajUbl+J4+fVoqh9SyjeQp4u+88w589dVXmfvvvfcevPvuu5XTxTAMw9xtblxpVA1OOzs7Nxaf7/vKAd80TbEhpt1uK5VDXdczS5Kqdy4uLlJKadFRJ1QBoEpZHovFQmnRqbI83ev1wPM8aDab4HmeKAcAKFViHj16BE+ePClNH/qDypyfn29kPZaXZFXUajXhSyjvIJbrWBU3uhXkXaoyOT4+Vi7Flm0kui7j8Rh6vR7Ytp3r6qDrem5eyvxlbdsWMiNvEpLLzjRNWCwWmY0/eRthvv/978Nbb70F3/72t+EHP/hB6rp///6VyoNhGIa5e9y40oj+g4jneTe6ND2dTmF/fz9zv9friUG/1+vBYDBIWR7jOIb5fJ57TEu73Yb5fA7T6RR2d3eVlkaZMAwzaSlTmDexUKnAXddIVWUHFVXZmoR+kohhGKBpWspKF4ZhYdmpMAyjdKk5SZKUHyE9u5IqMGVW1DAMxTu2bSv9an3fF+XU7/eVClrZkUWbghtcUA5brRYAQO6u76tYGlFu9/b2YLlcguu6GaVUXp6ez+eiLKiLQtFGmA8++AC++OIL+PzzzzcsBYZhGOZ14ZVshKFLnWWKwnVA5YUuISIYr+/70Ol0IAiC1HE0mqZBFEXKAdu2bej1epAkiXhexdI4Go1SaaFWTIybLv0WUWV5Gq1xlmWJJfEiS5zMcrmEer2eiSdJkpT1c7lcwtnZWUphCYLgykfcVGU6nSp38hYp2mEYwmg0Eu+Mx+PMcn0YhjCdTlNhbcPSKB9fBHA5OanVatBqtSBJEtjZ2RE7o/H4HBVYF3mXbKHWdV3Ibb/fhziOYbVapepJVhjDMMxYtfOQJxgffPABWxYZhmHeZBJmY4IgSBzHydw3TVP87XmeeMeyrAQAEk3TkiRJEsdxkiAIkiRJkiiKEsuyMmF5npd4npf5WxUXpieKogQAxLv4Dt5/3aoby81xnMSyLFFmmBd64TPENM3EsqxUOVE8z1OWO/1elZ4oisRvLHesH8dxEtM0RTnj30XlblmWkAsKAIj0eZ6nzHPepSKKolQ8juOI96lsUbnGdzAdcjyyTDIMwzBvNrUkqbhdmGEYhmEYhvnG8sYe7s0wDMMwDMNsD1YaGYZhGIZhmFJYaWQYhmEYhmFKYaWRYRiGYRiGKeXG/xtBhtkav/7b205BMW/9zW2ngGGYraM+Aou5YX79+LZTkM9bt5W229+3zJZGhmEYhmEYphRWGhmGYRiGYZhSWGlkGIZhGIZhSmGlkWEYhmEYhimFlUaGYRiGYRimlG+80thut1O/XdeFMAzB933wff+WUsUwDMMwDHO3eGOUxiIlr91uQ61WgzAMc7/XdR1qtRoMBgNxr9vtQq1WyyiWFNu2oVarZa4ihTPvm6J4KGUKrW3blcKhYP6LLhksV7xs2wbbtsH3fWi324XlTdNaJa5tEq9+DbW3H0P4z89vNJ7rUCZDReDERyVPcRxXkg9d1yGO49L32u125r2qckzf13V9o29kwjCEWq1WKc1lxHFc2l9siu/7NyLXee3nKn3A68qm/VYR2G7CMEyVYa2mvqqKSBxv9v6rwHUBaLPz/ct8baEZ3Rn8n3wKtbfv8PE9rxlvjNJIkTuN4XAISZKAYRi53yyXS0iSBBzHEfc8z4MkSWA2mxXGF0URJEmSujqdDgBcDkB44eCI35imKb6h4CBDv9mUMAzBdd1UWHjJA6Ku66n003Thb1WZYT40TYPxeAzj8RiGwyEMh0MwDCOVdjkdrusqy08V13Wxj/4R2gd/v/Vw7xK+7ysVnTL5cV03Ix9RFIGmaUrZpfH1ej2o1+uZe1WJ4xiWyyUAwMZKmq7rQobuIq8qfXJbjaIIJpPJN2alRM7/dfqSk5MT6PV6cHJyAoeHh6lnngeQJJeX4wA0GtvMSTm6vlb2boLpdJ2nJAEgTRoAsgrmXUf/7kfgfvSL207GVmi3Ae7SHPC1VxpRKet2u9DtdsF1XbAsS3SelmWBYRgZCwvO0OfzubDqoKXx6dOnMJ1OhaWRDmZo0cBrMplkBldqNazX65AkCXieB57niQGyCqi06rqesihgXlVWTWppaTQaMBgMYLFYiLBkxRhZLpep9GO50N+qb1qtFtRqtVS+lssljEajzP1Op5NSSPv9PgBApvxUcW2T+t5bkLx8DMZ/u3ej8bxqOp0OnJycpO75vg/T6bT02yAIhPKfJAlYlgVRFEEQBKI90bq0bTslh9i2aLupYuk5PT2FVqsFjx49yqT9tsA2WzTJ3BSU/VdBvV4H0zRhsVi8kvhuG7mvuk5fMplM4MGDB3B2dlZa/wcH63+rzHXq9bUytkWR2jrLJcC9N6tLBACAzl/8MSQv2dK4LV57pVFWyvr9PhwdHYHrulCv14US1Wq1YDwei+/G43FqkARYK2lBEIh38hQsx3FyLXKYluFwWJhuVJRoh1cEppfmVbZqtttt0DQNJpMJ1Go1CIIAPM+DZrNZWo6bWhpxOTuKIgAAkX5UqufzuchjmcVjU0tj++Dvofb2Y3FRwn9+nnoWr34N7ke/gMnf/QvMz5fQPvh75fK0/t2PxDf+Tz4V9+2jfwT76B9TYRYta8vW1FS6yXK+bIGi36mWFqn7QJ71yvd9mEwmMBgMoNFowHw+h263CycnJ+JblA/VEnIYhtBqtSCOYzEZajQaQp7kdGG9oQz4vg/7+/sb1eWTJ0/g8PAQDg4OYDKZKMuEpg+XoNvtNkRRBIPBIFUex8fHueWUV/6u66YmZXR5WmWFLbKeo6zL6cvLi0pO5Enitpa1VelUpQUnyVgOtAzkMqXPqExhmDQfVH7kcpPdCvLSqmKblsYkSaBer280uafQJV5abarlafqenEXbvnyGxdpuA0QRwGCwfWujrq/D7nazVi3fX8cZRZfWxlrtMo2YFtdVL91j3lV5Ali/p/oOoX2vvFrkfvQL8Uz/7kcAsB4fos9fwuDxz8D96BeZ5Wns/+kYIcrhux9l+vs82u10nnX9Mq/4O5VWN/8Z/Y6WgW0DzOcAk8kdsjYmrwDHcRJY//83ied5NxKH53mJ53lJFEUiLvnSNC3zDQAklmWJvwEgcRwnMU1T/A6CQHwTBEHiOE6iaZoyDs/zEtM0U/HQdy3LSizLSqIoSpIkSb1L/8b84P2ifFEcxxHpxTBoWPI7qjRWiUcG0+44TirdlCAIMmVlWVb1uF4+TpzH30vMfT1JXj5OkpePE+3+24nz+HtJ8vJxEv3yh+v6+qcPk+Tl48T70UGi3X87SV4+TqwP3xffye+Z+3piffh+krx8nAT/9GHqmfXh+wkAJNEvf5gJR74wf1i3KEdJkiSWZYm/sS6xnPA31gm2F1qOtCyL2lEURYllWUmSJJl6l58jKA+apok0F4WB+cF8RlGU+kZ+Lw+MEzFNMxUXtkn6Pi1fTC99hr/xW3y3qPyxvGl+5HaPqOqN1jfND00fzYscvmVZme/ywpGh+ULk/GEYWBdy/PRvz/NE3Pie/BvDleuHxiHXB607VbnRPBSlVcV1+q1qYH+V1kkdB8NfX0GA48Xl869tEkkUpZ9pGiRfG/Azz+h3SQKJaa7v4XfEZnGtS46nKGz53fVYls07/rasdbpp/vLyS//2PBLP131zUf8OAKL/tT58X/TjdFyQ3wOAxPvRgRhP6DPt/ttizJDDSV1f1wvN86W8Xf5GmfE8+Frms+WD72LZY1niu6ZJy/r2uXFLYxiGmc0l23BWV9HtduH4+Fgsp8mX7JO1WCzANE3Y29uD3d1dsCwLgiCAg4MD4eOYKJap7t27J57Ls9xOp5OyaAKsl2vROig/K8sPLvGiRZVejuOkLKMAAOfn5yK9z58/hwcPHlSKi+ZXla9EsbRGrQzz+Rx834fz83Nh+ZQxDCMVNr63iaWx/9d/CrPT/yF+R5+/hNXz/wMAAKf/8O+g3X9bLDt3/uKPYfmvf12Y73j1a5ifL+Hw4L+u0/jf7oG5r8PJ6b+Jd8x9Hep7bwEAwN69P4Tl5y+VYZ2cnIBpmsLHr9/vC3/YyWQifP3q9TpYliWWjU9PT0HTNFFvuGwPsLb2zOfzlOWafkvxfT9laaYuG2WbU05OTqDVasH5+TnU6/VMGCpLI1qSNU2Der2+kWxjnI8ePRK/e71eqYW+jIOv1wxR7l+8eAEAxeWPeanLjlwSuq6D4zhCbrFN4ner1UpYXYuQ6/vo6AiiKEq5wdBy0XUdVqtVbnjy8qymaal0hmEIURTB0dGRSLdpmsIdQNM0GI1GALBeRpetbFhOWG647D2dTsGyLPHeaDTKWIuxPnZ2dgBgXR9YXsfHxwCQbidlaVWh6uuL+q2r0u2mrUFofUNOTgBM83IJ+uBg/Vy2nIXh+v7XWYR6ff0dZvHJEwBS/TCbAZAu4c5AF7AMY738jsTxermbgi6i2MwuLtb/ahrA1+IHnU76u9np/4D+X/8pAAC8+H9/s/7uxf8HAADTk/8N1ofvi3fHx38O4+M/L0wzriJ1/uKPAQBE2HR16dFffVf8rd9/W4wvKoj4g6atfULp7+dfL0pNp+t3Me+Hh2sLYhxfWpmxjg1j/e3paWFWbo0bVxovUDII2JFvCxzcUCmTN5/gRQekMAxhb28PANad1tOnT2EymUCj0QBN0yCKotLlQJXvX61Wg9MKtV1leTrPpxEvXIakgzkd+FarVelAmFdWeX5CdGDDQRI7593d3dR3+HfZJGETn0Z5+dncT08E9PtvF8Ylgx3Rzv/zbXEPFcSroCpvzP/u7q64h7IHsC7Hss0qjUZDlI88MCPoN5cklz6JSbL2He31eoXLfIeHh3B4eAj7+/twdHQkJl7UFUJWCuXlaQCovGseAMRSOuar2+1mlKdtUFb+VcAd3n1p9KZuA1Unw3J9l7XRMugED91p5HQCpNsZbWPL5TLVbst2XmM+l8tlqhxp+ZaBm3Xy+ti8tFLk0xuKrm3sJqcbYTQtrQQg8/mlUqlpxeFp2uW7chav61soLxW/it3QqmX5KiyX6XKjVUWXn0fHWR/dvXt/uFFczy/+L2jSGCH/vikmk8s8qjZQ0fKrMPe8NW5caVR1JDjr3BY4uCHj8ThjKaMze4C1lQM7Vt/3YbVaZTbQ4Le0A3769Cns7u6Cbdupdx3HAc/zwLIsMbuWef78ObTb7ZR/Ik1n0S7t8XgMnuel/CnR0oiDeRzH0Gw2RSdcZWBUWTBN0xSX/IyWYRzHonOngyBuqnAcB6IoUg6Kvu+D67oiX0EQiPwUWQdGxwuwPnwfkpePlc7NeVbAPFBZROURAFI+LpuiUhww/3QCRS1He3t7pT5UWC5FskInAHSDVhiG0Ol0cjfErFarTJtUWRqrHKUzm81gNBoJJSBPkfJ9XylfZValq1BW/mW4rgvL5TJT5r7vpyZNVXeNy/W9zZWXfr8PlmUpJyGyRZ9OAvBelZ3XWJ6yBVRlICgKA+MMggAGg0FqslCUVmQ2m2XkB/sR+f6mVvAylsu1EiDbE0wzvcM6Kdj8EkXp92gSn1/zNLB+Px32NeclpbjuWgnG+Pb3N/sev4uidbmi+A0e/wy8Hx1A8vJxaoUJKbICqri3+58gksYI+fdNYVlZ2aD1Ij+7i9ZlgFegNBqGkTnG5roz6zLq9ToMh0PhRI1LvBTaiXQ6HTg6OhIDJV3iky0Iq9UKTk5OII5j8H0fjo+P4fDwEFarFXQ6Hdjb2wNN0zIz2+l0Ck+ePIHZbJaaIdMZfpm1CZeb8mbN9XpdWJsGgwGcn5+LZ3RHK3UXoKDVBMtmNpvlWkHxOXbKrVZLLD/jzmlMEwWXWxeLhVDGp9NpxgWgimUg/OfnMD+/rNeD//5fIPr8pdioglbJePXr3Blpfe+t1HK0vFy9CYeHhzCfz4W80M0P8nIoXS49ODiAKIrEQE2tLrg8h8uHAJcbJTJ5IQMxtTRi2RZNSur1OhiGAf1+X4SjaVpKWS07egqZzWaibvPa+nQ6hX3FyNLr9YQlFSecqEzIyuQmR1EVlX8Rvu/DYDCotDFCXlrPSx/WN+ZLXq6+LuPxGKIoEnJkGAZomiaWgwFATCzlMymxvuhkH2UPN0jhUTS0rgCyy9V5yGdq4oRlZ2enMK154EYjhFqvq/SrV8Xz1kvUODzgkiPqvrgpRp4T4PIjySLUyIaSR4/WS9SIbV9uHLmtY282tXzmDDEZ5A1C2F2ojNbyETq9wz+Byd/9S+o5bobJW3HCZWlcjpaXq2+KXm+tDKMsoCUYYL0kj/cALssERfqmFf6NUbs6vn6oHPbp5o48qHM8db7Oc+Cn9+VNLSrKHLllJ3aaH0y7vIEHUW1oQYdz+nfRRhi6wYbmQ06X6p28fGiaJhzqqQM/dbKn39ENCZguZbmQjSoAIJykqeMyfQ7EaRrvm/t6xqEaHZ7xG3SSVm18keNLO0en601Vpnhf3thANwnhxgh5I4PId47MUHCDhPy+SrbxN264ksPHzUqqezTNMrhpTHW/SJZQZuV45A0r+Bvlhj5Ttbu88pc3sNBv8zaI0c04Qta+ToO8oQk3h9EylDeFUeR2k7fJCMtHJQ8YH5WhvPqS04JxYznQOpD7WLrJkaajrD7kdiKHWyZbefnMk7nrod4Ikyg2Q+CGh0uZWN+XN39gmJd5TIdrWXQD5+V93Hyzjc0wm2yEwfTj+6rykPMNX2/myMs7fo/vXsrf1++RjSoAIDZB4mYX+TkAZO47j7+X2QiD/b9oy19vclRtfJHjkzfC0HqTy0/+jXV32YdkyzdTBkSm1nHdPrUkKVgLfE1ot9swn88hCAI4OTkRs1+6NIoWnyAIUjP6drsNs9lMLLWqME0TZrMZ+L4Pu7u78PTpUxgMBmJJvNvtKr9TFW0YhtAoOBHW8zzodDpi5tzpdEQaEd/3RZw0j7ZtQxzHlS1CRchx5r2D/kaO48BqtYLJZJJJU7PZzGyOcV0XBoNBqj5ovrAcUvz6b6+drxvlrb+51eixTBFahlTu6H0q0w8fPgTDMMC27ZQFSdM0WC6XoOu6sLjZtg1HR0fiWKvj42Nhoabf57knMHcf7BPlPvOuoOu6OEpNllkZy7KusUR9/SOP4nhtXQyCu31W453i13f4bMW3bittt6+uvRFKI/MNgZVGhnll3HWl8dVxfaUxDNebH3i03QBWGhXcvgC99od7MwzDMMxdxXXXCmMFd0+GufP8wW0ngGEYhrl74IYo5nr0+3d3JyzDbApbGhmGYRiGYZhSWGlkGIZhGIZhSnkDNsJc30n5zec1r+KbgjfWMAzDMExl2NLIMAzDMAzDlMJKI8MwDMMwDFMKK40MwzAMwzBMKaw0MgzDMAzDMKWw0sgwDMMwDMOUwkojwzBXxnVdCMPwtpPBfIPQdR3iOM7cD8MQXNfN/aZWqykvXde3mr52u536bds2xHFcua24rgu+7281Ta8r7XZbWdfM7cFK4w0QhgC12vo/qb8utg0g9UFXot1uQxiG4t+bxrZtZQdu23amU3VdN7dDL+vgiwYDvGzbLk2v/t2PoH3w91fOr/+TT6H29s39f6S2bafydJ1Bxfd9qNU2P6pKVdaDwQAajUbmvlz38oAZxzHYtg1hGJbWDw66AMWKgQrf929sAMY8UFC2VYpInnzmKRkULD/53bx0qKja9mu1mog/jmNlmmVkRadKvV6V5XIJrVYrVUa2bcNoNIJ+zn+9ous6JEmivPKUxiIlD9tCkUKDZTWZTMQ9bCtFZdPv92GxWOQ+R+Q+oawNIihDKlmq0l7iOK6saMvvbdp+x+MxnJ6elr5XNgbI9WTbNvi+L9oa1onqW5QB7Dfzwsc6VZUr3iuqM/k73/dT91TjpCxHtHxV/cg2YKUxB9cF2PIE9NaI4xiWyyXs7OzAcrkEwzBuLC7sTCeTCQwGA2Wjnc1mqYGn3+9nOvIoisCyrMz95XKZiY8+dxwHgiBIhVNG+M/PQb//NszPlxCvfl09r9/9CNyPflH5/avSbrfh7Owslc9ut/vKrRHL5TKVBs/zwCL/oW4UReJZ3uAtYxgGNJtNZUe7KaoOudvtQrfbzR0IborlcpmRe1punueJ37PZLHcw9X1fmdayQVs1wM3nc6WCT8PE35qmQa1Wg9PT00wbNE0zFVccx7BarWCxWAiZPDk5gclkUqhobgrNUxRFIo3Y38zn8xupX5XijO2xXq/nfoflRdsI9k3j8RgA8ifMctnlKZq0zdErCILMu6rv4zgubXvtdjuVDk3TIIqi0vTZtg1nZ2epeycnJ3BwcFApHoyLjiN5k2bTNHMnBZbiP/0ej8fw4MEDAAB49uyZqBP6Df6N42Wn0xHyL481VcE4giAQ3zuOI/oBgLXih30XlemDg4PMGCmDaY3jGOI4LpTPq8JK4zeA09NTePTokfj3JpEVC7zq9XpmAKXIHbOmaZmOc5MZ6iacnP4b7Dfvg/Xh+3D6D/9+pTA6f/HHkLzcvqXR932Yz+cZZdnzPBgOh1uPrwpYV4vFAvb29kTH2Wq1MgM2KnLUIinT6XREh0nZVJGknX6egiYPBFcBO3UqoyoFPk+pmE6n0Ol0Ki1XdjodODk5Sd3zfR+m02lpOjHfpmlCFEVikIqiKDXIIqq2W0X5b7VaMEA+qkEAACAASURBVB6PYTwew2KxgDAMIY7jzGTuuuCgLQ/qdBDeZv2izD579kzEh/HU6/WMoo9Kz3w+B13XhUI4mUzg2bNn8OTJE9EGsC+UJ8y0XhzHSeUJFU0KVZzp1Wg0Mu8eHh5m5PT4+FjZ9mRQScH0UcUJ5YymT9d1mEwmIn0YL70nW9dms1lufZqmmTIGdDqdVPqocqVSwCnYf2H7xUklnZRgu1Yp2psoYigDmD783Wg0hHyhUoxxGYaRO4YWgekfDAagaZqyTLZi/U9ee9ZlCnB50THC8y7va1q6HgAgsazsc9U3mnb5LvZXeWEHwfqeahLoeZCY5vp9fEdOs6ZBgu3Fstbv4zPHyc+PKi/r69URRVGqLtZ58zL3ACBxHCf1nWVZub+DIEi9j2iapgybXjScFC8fJ8nLx+t6+OUPk+CfPky0+2+L+3g5j793Wa5fPzf39ct8PP5e4v3oIAEA8U30yx+m0hD98ofimXb/7cT68P3UcznO5OXjJEmSxLKs/PRL0PCCIEg9M00zVR606ct1Jn+L4Heapol7juMo4/I8L3VP9R7mK6+eTNMU70VRlCRJvhyoymBjeSDxYtxFyDJK84RlJXexWHZBEFzKRhSl8kXzm9d2aPh40TR7npd4npdEUSTuq8KRv6HPaD3L5UPzS9ugaZqpvJXJ1FWRy71MLor6ibx8UpkNgkDINOZf9R0tb/we60IlzxTVcOw4Tq685oWD6ZXLQyUzebJEv6X5wbyowqFtXiWLlmUp+wpV2lX3Vf1KUTg033nlJD+j4cjtu0iGgiAQ76rSQts9ygX9V46L9tdyfeSlT34mf+N53lba4RuhNFIlC5WwKMoqb6aZVsDWnVz6NypvjpNWvDQt/W5R2GVK41rI1PEWKY34LYYrP6PpNc3LMLZa2oqOjSILMnYYSVLcsauUzaKODJEbqKycFDWs5OXjxPvRQWLu6ymFLvinD8VvWRm0Pnw/sT58X7zrPP6e8j0ASLwfHaSUThoHVU5pOLLSaJpm4WCIaJom3sNOHTtDx3FSAxx2fggtWxzwVZ0sDoBl9aQC60WlUORBB1k6MOUpPSqo/G0bKlvygKKKk75D6wMVLZXSKMejyo9KxqmighMPLKsyBUumSh3TNMuyU2XSE0VRrvKmYlOlsUhO8p4VyWye/DmOI9oT/o3yQOtfrt+idoAKl0yeEljUX1L5USlTKvkyTVOkEcuiKAz8hoaZp/Cp5LZMAVSFU9YnqdKICjnNs0qhzssbHWtoG5TTj30Wvp+XxrJ2oup7iyYUVWV2U1775ekwBIgiAHSTqNcBkmT978kJgGmu/wYAGA4B5vP0BpVe7/JvTQN4/jw/rv39y7+rhF3EVVZPplMAy7qM8/DwMs7d3XU54OrDbAZQ0a1sY8qca+mycrfbFfcvLi7g3r17ud/RJSfZp1Hlo7MNpif/G3qHfyJ+P/qr78LoeJF6bn34vvg9Pv5zGB//eWGY/k8+BYD1kjUAQP+v/zR1H+NB9Ptvw+r5/7lyHsIwhCiKhK9Qp9MBTdOEA/mTJ09Sbgmj0egyrV8LDC5DGoaR+paCS36q5V68ZH83SqPRgEajkVmKAyh32kbfrd3d3dSyFV1aU23UyfNp3JarA8r6aDQSy3VBEECn08ksX9LlX+qTWLQ86Pt+ahkc8+O6buny/WKxSLmF4HIVXRKjYch+kPhM5S+G0CVYTdNA1/WMbyntD4oo8z+m9Su7rtA8yfm6Do1GA05OTlIypyoHZLVagWmasFqt4ODgQLgG7O7upvyvcakxjmNotVqQJInYGEaxbRs6nQ40m82MzI7HYwiCINefT3YtsG071R6wznBDSBHHx8dgWRaMRiOwLCsThuyigT69KLO9Xi+zpCzj+z4sFguYzWZKn13btlMuEJQkWbss5PVN8tKuruuiv3zw4AEsFguI4zhVlip5dF1X6RZUr9eV7gMAa3cUTdNgtVrBzs5Obt9Jv5f9O7Fs5fyp4ozjGPb29pRxeJ6Xm86qvPZKI6Ja7o/j9P2dne3Fd5NhFzGZrHdm12oA1G3FMAA8D6DbvXx+E77+pmkW+lbU6/WM0oedxfOvNfJt+ibSzkn2nUO/lTzi1a9hfr6E7v88hdrbj6H29mMYPP5ZZkPM3r0/3ChNzy/+L2j3307dk39XpV6vw/n5ufIZKgMXFxfiXYR2ulEUFSrrAOndh2WDt0oJw2s+n6fepT6NAOtOj+YNYN1BNpvNazttyz556LCv2lBVdaOOCurTCLBuEyjjDx8+hIuLC/B9P7Oblyo91N+oqD3IfnyoPPf7fej1eoWboZrNJhwdHYkBDQdElfO9HJf8LA/0ycO0LZdL6PV6KX9KGmce9Xq9cMIBkK7fMp9GOe1yP0Ev2V8Yfd4GgwEEQQDj8RiePHmi/JYOwL7vQ7PZBIC1Qnd8fAzz+Rw0TYNGo5Gqc6y3er0u4h+PxylfRNu24fDwEADWdSPLrK7rmXCLJkfU55cqRyi7RZO28XgMe3t7MBwOodlsivqlMkmVQqog0zZPJw6o3CCdTkeU53Q6TSn+uq6LZ+PxOOWziu2R+ieqLpq/5XIJ9Xod9vb24PT0VPQ/tCzlsQPLMs9flm4ko2mr1+si/aenp5Xqivp3ymVbRqvVUm4eQgVe07Rr7ap+Y5RGVRnU6+n7L15sL76bDLsIy1pbUumFY22nc3nPcdJK5baoMrDTWavrukJAV6sV7O7uAgCIc8vwHXnji/ybWhIoOEvHa5Pd06f/8O9gffg+JC8fpy7t/tupDTGbWgHv7f4niD5/mbon/65Ks9nMKGIA684IGz8tU4QOhJqmCYU9j02Uqk0sjThQUQsczVutVoPhcLhRp0hRWUiw855Op1Cv1+Ho6Ei8Jx9jcRXQUR0VUqqgGIYB3W5XWEwoVOmhg3ZRWdMNYtSqE4YhdDqd3A0xz58/F3KBqCyNdHKBg+8m1jp6tM6LFy+g3W7DgwcPYDgcpo5JGo1GubtmMZ/7dCmnhE0HvU2O3MGJL1Vyp9NpZiVEnkAvFgshx9i3oSIrK7V58h5FkbDWNpvNXAWlVqulTlSgm2YwLrnvo5ZkqhwBABwdHcHx8XHl8lRZGqsYA5IkEfL7omDQNAwDer0e2LYNuq5ndmHTPKGVX54sUqWW1iVtU4PBAAaDAXS7XQjDsNDS2O/3U2213+/D06dPhdUT2zdt9ycnJ3B0dJT6Jk8OadhXPWINyyovDlmur8JrrzQaxnpZma6m1WrrZVq6fAuQXVIuosQwc62wZTQNAI/lwuV2Fb3e2tKIcbruOq/4N+377t1bh7ttykzbYRimZo/9fh+Oj49Ts3CZfr+faxFSWRIQeaa6KU/+179C8+F/ztx/9FffhSf/618BAKB3+Ccw+bt/Ec/cj34B+nc/AoD1srIKXJbG5Wh5uXoTOp0OmKaZGdgajYbYxSkvKcvL1Y8ePRKWPgBILa/Igxx2qEWd1CaWxjxw1mtZlhgYr2KBpsoDLumcnZ2lOka0KNRqNaUyty2wowe4bCe+71dScAzDUCqPqMDIVh0ss7y8rFYrMAwjtWyGyipV+mUrG1Vs8gjDUMiHYRiZ47Tq9To8evRIKCEXFxfCspNHvV6vbP21bfuVnxyAR0Nh22i1Wpmyp31jv9+Hw8NDoZzLy+d5YBlNJhNxJIwKXHKl4fX7/ZSF+8WLF6kVBmpJlnfPFy2vYpr6/T4YhgGdTkcoVFex3lP5LVoBefDggdj5nCc7ePICVYjPzs6gXq+nVjBWq5UIg7YpWg6GYRRaGuVJlWplq1ZL71Aej8eptG9yTiO2dWqplaFx4dFsL168EOem4qSOnq1Jy+IqvPZKIwDAcgkwGFwuyzrO2uqGS7aatr5/drb29avCgwdr5S3vOLTrhC0znV4uO49Ga+VTRaezzhvGORhcKpj9PkCrdVkG3e46Ta8a1QG74/FYHDOCyB3aVTg9PS20XhTh+z5En79UKnIH//2/QPT5Swj/+Tl0/uKPwXn8vdTy9fJf/xoAAPab92Hw+GfKsxqjX/5QLHt3/+cpRL/84ZXSCQDCx4d2MI7jpMp5uVymBqggCFKdvWVZ4lv52KUoisS3mqaB4zi5lhB5CVN1FYH5oO9Sa7SM67opa0ZZOeFgiqAS/PDhQ3AcJ9diQWm32xtZI9Gvr9lsigkOdtDoVyhDl0s3+R9JcNCpmj56gHocxzCbzcRxP/KSHQBUUmzQHQKZzWYQxzE0Gg1ot9siP6iEdDodODs728r/vGLbNuzt7d3oWbN5YJugftpl5FkaVVClJ0nUR1ghqCRheAcHB5lJkVxPMtgWiyZrYRiKyT7WX7vdFooX3pflUfZpVPH06dOMNRzjrNVqYhXp7OysUCbb7TYsFgtRFrgETFcwVP2L7/uwv7+fak+YJ1SKqZVQdRSOvLKVJGo/Q2Q8HgsrNcqE4ziZFQuAy+OUiuRNNWHDMXh3dxcuLi7g8PAQTk9PYTQaVZ7EFpK89pSOYXy9YnCnHe7ek48xAHJMAb2v2glGd5sVHdGD4A41Gk/urkrVMTd36bpjVDneSFXmeC/v2AsMl+6+xW/kOpZ32efVrep4IPr9JruHi8LPC4fuolWlW3X0BT6TjzSi39Gdo7RtyPdxRyjel8PBrp/GJe9ApkfLyN9iXWE5qHZ0q8r/OmialrsTPm/3dNkOY3qpjlfBI3RomdH8qeSa7lIvi4vWSx4Yf95OWU3TUuWcd9yTfIwLTTdNB72v2hEsywMepSMfGYPIO7Lxe1k2MH1Fu3tV8o5geav6HrnsVPdwdzJF0zRRHlft/2h50JMsqMzKO+TlY7fwuBw5Hrms6NFQ8rE7mP7rniZRS5IS08Cd5/r/08Cbz2texTfFr//2tlNQzFt/c9spYBiGYRjBG7E8zTAMwzAMw9wsrDQyDMMwDMMwpbDSyDAMwzAMw5TCSiPDMAzDMAxTyhuwEYZhGIZhGIa5adjSyDAMwzAMw5TCSiPDMAzDMAxTCiuNDMMwDMMwTCmsNDIMwzAMwzClsNLIMAzDMAzDlMJKI/NaEIYhuK6buof/yTz+W4Zt2xCG4dbTxjAMwzDfBL4RSqOu6xDHMei6nnlWq9UKL5l2uw1hGIp/b5J2u51Jjxyn67qZe7ZtQxzHYNt2br5Uihbe832/8jcAIOKSwynKV144tVpNWU9IGIYiPcvlUtzHe77v5347Ho/h5OSkMG0Aa3kpkolt1jvWFYLKse/7GSU5r16KZJeWl3zlKeFyWdD8qsKh6cd00rDjOK6s2F8XKotV4sxrP6r35PtFbQNluexSyTqGpZooXQVV/+e6bmU5om3qLvd/V2kfCJZ1UXtRyTptv1W/YZjXmTdeaQzDEHRdhxcvXkCr1co8N00TkiRRXqZppt6N4xiWyyXs7OzAcrkEwzBuPP00PY7jiHSoBjaZ8XgMjuNAEASZvM1ms9S7ruvCcDgEAIBOpyPesyxL/L1t5E6+1WpBkiQpZVDGMAyRHjoI4r1OpwMAkKswTyaTUuVJ1/VcmcA6uGloPug9VZqiKErVE60vWl6WZUEUReJ3v99XKk0AlwN2FEXQaDSgVquBbduZOCzLynw7nU4BAES5np6ewnw+f+UD6Xg8ztStrBQMBgORP1TiDg8Pxfuo/A0GAyE7qNTRvkMFrRP6Lv1bpTRiui8uLuDevXvXKoO8/q/f7+f2efI9lMW73v9dpX3IGIaR+36SJFCv18W7KMN4T9VnqtoHw7zWJG84lmUlnuclpmkmQRBkngNA4UVxHCd13TSmaWbSEwRBEkVRYlmWSBPmy3Gc1LuapqWe5xFFkciPZVnifc/zEs/zxDsYJ4Jhy89M01TGI6cvCAIRr5wPmmb6jWVZqXIJgiCV37z80fShTOShaVqhTJSVZxXkusW00zKpilwvKmi4tH5oWefVW1ncURSJ37QOHMcRbY+yjbZjWVZp28WrqK6pDGualspLEZ7npfIh5zGKokppk2W2yjebUNb/0fyUldld7//yKGofqnryPK9Sm8J3giDI7f+u0qaq8LOf/Sz5t3/7txsJm2GKeOOVxjKKGvVNNfiqqAbbKp0mHchlRU018FAliQ4GGAc+l+PZVGlUPXccJ4miSIQhd8AIHaTxe/l9VbyoDMhYlpU78BWlv8oghYpskbJC00EVFVTg6WBWNEBXGcCjKBJ5QnnAMslTGqkyXqSsyLJGZQmVsE2UuG2QN+DntYUyZU6eRJimmYmjyoQiCIKN8q7KRxVlZhNQWUTlEtOHSvmrUA7zuGr/J39TJQ90UpWn8NO6o7IkT5SwDWO5FoHlXIbv+8l//Md/iN8/+clPkmfPnpV+xzDb5huvNG5zVr9pvGVcdaYtD+Ty8zyliN6vYnWhnXieJVA1kMoKjOqSO3oMMwiCypbGIAhyrY8Yv2pAeRWWRgTrSrb0FKWbph/LosjKSsNFuUEZ2tTSqCobWU5omPKzqkpPlfYhp0WePFSx2uZNUq7LdS2hKqW9qMyvmj6ad6o0IjdlVbzJ/g+p0j4QWWmUZUJVNkmS7Wtvoqx8389YFVlpZG6LN96nsYwkx3ctKfB72RZV/LpoWjbxp9M0rXBDiYyu6zCbzaDdbkO73YYoikDTtFKnfQT9eMbjcSbdKt+nWq0Gq9VK6W8ZBEHqXSwnx3FgNBrBbDYDTdMgSRJ4+vQpOI6T8YUMwxBGoxEsl0tot9tKB/Z+vw8AkNk8s1wuwXEcEa58bduXS9M0GA6HKb8yzEveZg68PxwOwXEcODs7E36HlHq9nvLtovexrlTIvn9Y9yp/T/TpQh9V6id4fHyc61NaJv9lz2laaN6Q0WgEBwcHym9xI0ij0cj4ucplKG+MyvOXpb6h4/FY6f+pkif0GaScnJwU+tVS37qrgOkrkgGAte8jtpNtc5P9X9X2QRkMBlCr1eDZs2eV4nBdF5rNJjx79gza7TYMBgMRRtHmnU34+OOP4be//S189tln8NOf/lRcX3755ZXDZJjr8I1VGlU78/KuKptONsU0zWt3/DI4EE4mE4iiqHBDCUXXdYiiCGq1Gsznc9jf3xcO8Z7nged5uU77m4BKxXw+hyRJ4OjoKLUJAa9er5caqI6Pj6HX6wEAwGw2S6VX7qhxIDIMQ2z2GY/HqU0A7XYbjo6OAGA9KNJBm258UA0A2xgIMA1YVwCXm0cALh3rdV0Xm5MQVOaGw2GqjFA5bDabqfTRXbyapqUUpKI80A00skKeB25EoJuvDg8PhfKNG3Fwo0GR/FdpH8vlMpU3WhZhGEK9Xk+FQTdePXnyJHfThCoe+s54PM5sGLEsKzOZkHdQqzZhqXBdV/ku3byzjV3V8ka0brcL3W43da/oNILrcBP9H8DV20ej0RBy+uDBg9J4XNeFwWAgygwnmij3KB/X3Tj3zjvvwFdffZW5/95778G77757rbAZ5ip8Y5XG2WymtHCprEtls/GrULXDlAeLInBHpLxjT1bM5vN56rk8KPb7fTEg04GkqhJKieNYDHCoVOCu9Hq9Do7jCKUUldRHjx5lwtnd3QWAtbLVarVE5yzvDleVa71eh+l0Kqyow+FQ+V4YhmIHN7X6yXF5nrdxOcig/KEiRRWOvb09qNVqcHZ2lrrvui6MRqNCayeWca/XE4oTVYiotavIYiorPFUmDPLROrquw87ODpyfn4tBGnfxotKeR5X2oVLmANbl12g0MnHQ3bUA6iNSqPKJyBNMgLUFCyeTYRjC3t6eMo151kXaDijYVopWP1SK7VWhbU++tiHnedxE/3ed9iGvbshKe7fbTT2Xd59j34h9LZ4WUJbmMr7//e/DW2+9Bd/+9rfhBz/4Qeq6f//+tcJmmKvwjVUaETwTD5GtS9e1ruVRRRGdzWYppeWqS6OqJWCK7/vi7DU8d0y1DHkVpfHFixeFz/v9PiwWCxH3YrHILIfRsprNZkIpkJdCi87lMwwD5vM5zOfz3DI0DAOWy2VqaXY4HIJhGEJBMAwDnj9/Djs7O1WLoDLUykmXIFGR6Pf7maOS8qh6JEq/3899jyo8ee2ATgqoInBxcQHL5RLq9Tr0ej0YjUbifhRFpUrDJhM1euZgGIZwfn6uLD9K3rFKeQqZrOgZhiGsVqPRKHcJt8hiKE/esB/q9/tClvFAetd1RV/14sWLax/Fc9vcRP+3zfahUvZlNwLbtsG27dS5pKq+9rruLB988AF88cUX8Pnnn18rHIbZBt9opdH3/cxMULY0XkVR2hau60Kv1wPDMFKH6Zb5o23KYrEQShD66KjwfV+5XEWXPeUBuspZc4eHhzCfz8VSbRVUlkbVgEEtZlinRT51tm0La0WSJHBxcQG1Wg2azaZQDFarVWn68pYei96nVs7z83OhzG9TQaBKTJnbBX03rx3Ik4LZbAar1Qq63S7oug7tdhsWi4WomwcPHog6uA7U+rdarUS5NRoN2N/fF9ZN3/fh4cOHme/p0naZpREAlIredDoFy7JgPp/nLvVvYmnsdDrQ7/fB933hjgGwVlDPz8+h3+/DdDqFp0+fCsv7dZGXo4usa6+aV9X/XQW0Lu/t7cHu7i6cn5/nvls0mfV9v5L70wcffMCWReZukHxD0TRN7JAr2+l4E7sry1AdCWOaprhHd44idKes/I580Z2ytBxoXKrv6Dd4T7VDVvUNpg93MqrSgruIVTuh6ZmOefmSjwwp2jWJ5aPa8YhppWWC75ftMq5yzptcVyrKnidJ+Q5heVe26nuVnOcdo5S3ozVJLutFlZ4qebkusixqmpZb/3l1qNo5K5+7h7JFd+1iuWD8ee2nSv8inymKYPlu6yiwvB3BVZ/fJFfp/1RU2UGPdYXHehXVFd0pjace0HNti/qkvLi3eRoDw9w0tSSR1ioZhrkWtm3D4eHhK/kfMxiGeX3Rdf1WV7MYZlNYaWQYhmEYhmFK+Ub7NDIMwzAMwzDVYKWRYRiGYRiGKYWVRoZhGIZhGKYUVhoZhmEYhmGYUlhpZBiGYRiGYUphpZFhGIZhGIYphZVGhmEYhmEYphRWGhmGYRiGYZhSWGlkGIZhGIZhSmGlkWEYhmEYhimFlUaGYRiGYRimFFYaGYZhGIZhmFJylcaf//zn8Omnn77KtDAMwzAMwzB3FKE0fvLJJ/CrX/1KPPjNb34Dv/vd724lUQzDMAzDMMzd4lsAa4XxO9/5Drzzzju3nR6GYRiGYRjmDvIHH3/8Mfz+97+Hzz77DD777DPx4Msvv4Td3d1bTBrDMAzDMAxzV/jWO++8A1999VXmwXvvvQfvvvvuLSSJYRiGYRiGuWvUkiRJPv74Y/ijP/oj+LM/+7PbTg/DMAzDMAxzB/kWAMAHH3wAX3zxBXz++ee3nR6GYRiGYRjmDlJLkiS57UQwDMMwDMMwdxs+3JthGIZhGIYphZVGhmEYhmEYphRWGhmGYRiGYZhSWGlkGIZhGIZhSmGlkWEYhmEYhimFlUaGYRiGYRimFFYaGYZhGIZhmFJYaWQYhmEYhmFKYaWRYRiGYRiGKYWVRoZhGIZhGKYUVhoZhmEYhmGYUlhpZBiGYRiGYUphpbECtm2/knjCMHxlcV2Fu56+q6Lr+m0ngdkytm1DHMfid61Wu8XUpAnDEFzXTd1rt9upf28yLt/3M/cYhnkz0XU91RdeF6E02rYNtVot9ypSFlSJqtr5tdvtSnEAALiuC7VaDcIwzE0nTQcNu+jaVgfq+z6EYZhJs3wvD8MwKr2H5XCVuqLEcSzKU4Wu66lwG40GTCaTwvLzfT/1zPd9EZdt2+D7vri3TcIwFOEWyZ5KzqMoytyTw8h7dlODPQ7see2S1nFee8DycF23UqehUjDykJUyBOu5iCKZQ2Q5KrvkNMRxDPV6XdyLoqgwXXl5l+OR051XDvTbojjxneVymfmOtpO8cm2325X7F6TT6cD5+Xnl96vKNm3beX2U/H5Z31UkT0XpKkuzrusbl9tVKZKRPDYZN/JkDPt3ufzkPlguK1XZua4rJteYNgwH45Hbjzx+YH5s2y7Mm2qM8H2/Un0XldsmZbrt/rxKH6YyXuT1S1XTp+s6TKdTaLVa184DkrI0RlEESZJkriiKCgM5OztLCaau6zAej0sjx28wnslkolQocOA8Pz+HJEnAMAzxjed54Hme+E0HCgAAx3EK0yA/V3V2KkVJ1ZEtFgvY2dkpzTdA/kCvikslTEEQXKmuKK1WS5SnCl3XlXHQKwiCzHdYH57nAcBawDVNg8lkAt1uF7rd7q1a9/LknF4ypmmmnuGAN5/PU/9uYyCybRsWiwX0+30Yj8fK9NH2RdsDTeeDBw+unZY8ZKVsE5IkgV6vV/hOp9OpJHuO42Tq6/T0FIbDYWrQQvnLU2DyoOVZ1FZU7TlPlhBab7Q94L1Op1OYNtu2odfrlZYlQtOG8rpJWWyK3EeZppl5h/bdtO/KGxRx4knxfR9s285VClTKaRRF0Gg0SicFrwLVxHAwGCjThwoEKmpYd3SigcYSTdMgSRI4OjoqjH84HIpwdV2H2WyWet5ut2EwGIjJNaYN+3JN0wAAYDAYpMbF5XKZqnvDMMB1XZhMJqm8FSlA+E63283ILCriYRiKZ3K5xXGcG/6rrHe575L1liRJUhNHpNfrQb/f3zg+lI+zszMwDAPOzs5SZXbdzCRJkiSWZSVRFCUqoihKLMtK3TNNMwGASpf8LQIASRAEymcqTNMsjZvGhe9TgiBIPM9L/XYcR/x2HCeTJvo8SdTlgfmhF4ZdJY80rUEQKNNO03OV8pbDkPN1lbhoWSZJkniel3iel3pumqYoM3xelL8qRFGUmxZZPuS4giDYuPxM00wsyxLhyfkwTbNyXRehaVqmTMvAdKnyId/DNp73Td5FcRwn8Twv0TSt8JuissAwroPcdhGaT6RI3qi8mKZZmC+UDSrjmFf6DPNG/8a00bBo3FQuNU3LTR+GI4dLf6vajBUPSAAAFoVJREFUB1Ikp3K+8i5a7qpv8vqNsriwDDGfqr4WxyrsV/Bdmi9a33Id5LGN9psk2XGgrPyumhaa9yRJj49FYHmoZCSvz6TpksfLvLL1PC+xLEvUl2VZmXzTeOT0YPtQ5Y3qK1Q+VOWmkg/5ftE4d92xqmwMzRtPLcsS6XUcp7DPlvNL+w+KpmnXzk/K0qhpmtL6hTMJymw2K7UE4KWyOqJmX2VJFmdOOJvo9XpgWVZGY7csq3RWtbOzA8+fPxfhlhHHMQwGg9L3fN8XVo8kScBxnMpWx3a7DcPhUPw2DENYSvK4rqXxyZMnlWcw1DJHLS+WZeVaQ0zTFJZGAMhYGlWzKqSK72S9Xi+0eNJn8swZIG3hoHnyPA8ODw8LywKhs9/5fF4qJ1Wsq8vlUpRp1SWIo6Mj0R4wL57nQbPZFPUURVHKqq6yYFLLnXwhtD1QSwKVP0xLUdt++PAhTKfT0ryp+qMi2bBtO9NfhWEI+/v7ueU5m81E3mezmbCwy+XhOI7oX9ASimVrGAY0m00IwxA6nQ5Mp1OI4xim02mqjWDdOI4j+kUMBwBE2VFZwfRZlgXD4VBYyrrdrigTy7JgsViIssH24ThOyhqLz9HqoypL2QIiW1vltoZlQftigOtZGosYj8cpK7eqfcvp293dLV0e7Pf7hTKLq1Bl1hq5TaCM0HuqvrfdbivDzluirNfrohza7XZpOQCAsNp1u104Pj4Gy7KEfJimKWRelW+05A0Gg9RvKofUCtzpdKDZbMLZ2RnU63UYj8fQ7/eFO5tt2yndAGUW5Wg8HsNsNgPXdWF/fz+VJioDZWN+FR4+fJgr81XKtQzaZqIoylgaAdKrnr7vpyyyAOk+W26TAJfWRdQlVDIeRZHoQ65sdUTtcVNLY5JkNWh5NpD3XZIkwlJBwyiafeEshP6tumge6KwciEaOM54gCEotjXRGVlQectz4HPOXh6ZpuTPKKIqUM4brWhrlGaqKqhYHWq5YDvTCmc2mlkacoRYhx5VnacT6LZIb1YX1oprhYV42sTSiJakKmqaVphfjynsPy4PKYl4bx/SVWUAwn9SSRr8pavMyVcpClhMavpxefCb3ZdSigPfldkXDMk0zI0N01k/BuIraS94qDa4o0Pqk7UaOh9ZpVdBqimUjt00ZlVVOZalXyQn99qYsjXmrTLRPV6VZpoqsb4uisRXBssD35LJQyWtem1eVkRwXjmvYj6Es0jZQRFlfp6pbKldFFi/sUyzLEjoCIrcXDCuv7dE+usjSKLfFvHSrKOvHaLzYV8srcphvOa4oikT+8+r8Vckxcu3d03Q2uSk4s0y+nmUOBoPcTRLHx8dgmqbQuvMsjSpQK6cz3fPz80pWzufPn4sZUJ7vj23bEEURtFotYUGlWnwQBErNXtd1ODs7g4uLi8xMEn+fnZ1lLCT9fh+iKBI+K/JV5k/64sWLUn80aknBcKkVKZFmO4g8A7qq7yLmoWg2ROMpsjTirJ7OZKnc0jQ7jiOeUfmgloIyP9k8DMOAIAgKN5vgbLHVamWsqVgfmBaaPpWlkYapQvbfbTQaKSuC7OsThiH0ej24d++euLfppgqKagXjOqA1g2LbtpD1e/fuwenpKdRqNaWlm/pkUesjtqm8/kLTNFgsFhkLHbYZCtaF4zgwGo1gNpuJdvz06VMRn5y+s7MzsCwLptNpqt7CMBS+m3Jb830fdF0Hx3GEVYem6ezsrNDnqyq4EoQWrFqtBqvV6kYsjXSFi/ZFVXzo6Wa5m0K1+XIymShX8VAW0Ic5SRJotVrCckwtR+iThuT5MXc6HdFv5Pn8UnD1p9FoiNUSeZxT+evm+Vwi1PpMV53wvbOzM2HxonIbxzF0u1148uQJjMdjWC6XKassrX9sj3TFg/bfWB55UD9IOWw63pX5FmO68zg/PxdlhX0ethUE289isUiF2Wq1hHWW1rlqfHtloPZY5uO0bUujyuqCfmOqd9G/AWeIeemsYmnE2Qv6XORZGnEGJqexKF+YBzrjxjDk/Mrf0XiLZg9V/EmLrD3U/6qMsrhUMyO5vPO+3Yb/EJWFqlaGq1hqaTmg3Gxa7lVAC2NeOCqrRZmlUWVpo2WhkrUia7Q8I6ZWm00sjXl+N5RNLI0I9aGiFus8yz3WLbWy5MkIpofO+ql1SHXJaaPtu8hKguFiHVGLMfWXzvNlwzZBywitN4hcHlfxaURoX1fV0ij7YRZZGoss79inF/UBtO2orDbX9fVSgeMWjhtV3kf5wLpV9ZN59eQ4TkpGyyzCqv6kig9oVf9PzH+V1QjZCpck+W2Kto8iH/Ukub5PY9G4TcPZhE1X+nAvhqq/kOvhKrrcJlx79/RVLY1V/f0AAE5OTsRM0jAM6Pf7Is6y3dMAkMoLznJWqxUMh8Nc/7U4jmGxWGSsC8PhEI6Pj3PTOpvNII5j5ewkiqJcK9NsNoNerweu64qdsyp0XYfhcJjKP864qSWwjE38GVQygXGrsCwrZfmTZ384A656xJAKnP1i+izLSslU3gwYuYpPaJIkYqZI/QjxMk2zksWjiCJfzzyoRVK2OtBdzqvVKvMtyhmVyzAModVqVfblMQwDnjx5snG6q1iW5B2TVa2Tp6ensLe3l/J3qtfrSss3WhXpezQ/1IqLZYmzfrq6gb6KVM5Vqx+7u7sAsLZKtVotIYtyO6H1dnBwkAoDrcIAa5mRrae+76faJ7aXZrMp3sPjOCiqXevy6kGSY904Pz+H0WgEcRxDv9+HIAhE/0x9HSnUH66sbmXLO01XlXYzmUxS44Psv7sN3zWKbdvQbDaFBZyuRKlot9uwt7eXGjtwXJC/o/VEy6Gq1WmxWAgLs2wFpRYwTFdVSyP1kW2326I/7Pf7wkIun2SAYxHWL6VIDlV1SduQyrKdB/o00tW7quNplVMk5OOH5H6tVkvvIpfboWEY0Ol0Miea5K16XfUknCpca3maml3zlm7zqNfrYJqmGKxw27xKiZMHYnqEAl0SqdWyZ0XJS3BBEIhGnNfRXFxcQKvVUioAhmEUOt7Km1rkPBc16larBYPBAJrNZu47y+USDMMQQrhYLGA8HouBfjweQxzHsLe3lxuGYRgwn89zn8vkOY7LnQuCDry00VI5aTQaleMuygN2kmEYZo6AkRuLjKrDKxu45KUU+QiXqyh824Aev0E7I9/34fT0NNWmVB0cyiR+NxqNNs7Lpu+HYVipU1d1fFUU84ODA2VbGw6HhRtpcABbLpcifVjPw+GwMG4c7HVdB9d1YTQaZd6nv2ezGezt7QlZpAMxHUDkMPr9vpiYGYYh0krroNPppJQPbC94D2X5OhM3Cra/2WwGrVYL4jiGk5OT1LFP8pmLnU4nNemtWrcA635dPmqoaCMLblTc9vl7KqiCTutguVzCaDRSnkVZq9Vyj1dZLpfQ6/UyaafnGWKc6EKSBy7/np2dCSVZVjBkYwBdtsUJACpnjuOklDmsP9/3lfVDjQZFSs9tIbsBVKGKzFJlj5aXysULwfMsXdd9JXJblSvvno7jOLN7Eqk6Y5vNZvDkyROhSHieV6kTo1q4bGmUG528o1VWFlQKzO7u7pUUABxYNu2IcSaHu10Xi4VSAQa47BzOzs5EI5UH+hcvXpTGaVlWJf8eaoWRrYUAl1YT5NmzZwAAKXno9/vgOI7YNRYEwdb8MOI4hkajsZGFDzsvgKy1AQCUCvd8PgfP80RHWK/XxY5ktDjdltJYZGms6rtL/RLn8/mN+349ffq08vmC2wDbDVqj8/L37NkzODw8FJMAy7LEIHpyclIaz8HBgfDProrK0ljUh9KdlXgI/Hw+r3TWHPY1SZJcfxclge6EXS6XcHp6CgDFVhjcXT4ej8VZi0hR/l3XhdVqVcnXDMHVm16vB7VarVJdyoRhWDp4t9ttGI1GKQWdMpvNoNlsZnwagyAozM9yuYT9/X1RRr7vw2KxEN/gpODk5KQwHLSk0b6qzNKIoJGCht/v94Uc0fFKnrQgqExi/39+fn7l817zuLi4SE3i82RJ9mkEUFs7bwOUjZ2dHVitVtDr9cD3fbGqQC2+KjbR5TYm+ZqrnNMo+/KofE+2ubNH5aMoX6pzq4qock4jQn0FVOeUqcgLj/ph5MWHfhZ5vl/oiyW/D5A9p05FkU8ZrcOyM+7yzgrDneF5dXVdn8YgCHJ91PKgPiF5yDve5R2yGK8qT9f1F0mS/N35eenO82FBXyLMj1xPRXUhh0lR+TxRH5wqbb6KP2MeNF1FPo1JctnOZJlA39Ekuaxv9AfDb9CvE8sHfYrkdGB4clulsk+hfU6RL5XK34/6NuL3si+mKi6MR9XmitoChluEvLNcrhdVX6dqu7R8abnIZ9fltbG8Pksla3ntt0h2qa/6JlTZPS1T1WcwSZKUD2Oer/EmaZPbt2p8U6VP9o/GOsT6on9j/yLXJdZL2d6FPFlWpYv2ZXmnKsjfbFt/ydNLzK/P/JXLgu6nkE8PoOTld9OTcDahliR3QK1mboUwDKHRaNyJmRXzzQHdRLa1NMowrwJd129tNYFh7gqsNDIMwzAMwzClXPucRoZhGIZhGObNh5VGhmEYhmEYphRWGhmGYRiGYZhSWGlkGIZhGIZhSmGlkWEYhmEYhimFlUaGYRiGYRimFFYaGYZhGIZhmFJYaWQYhmEYhmFKYaWRYRiGYRiGKYWVRoZhGIZhGKYUVhqZG8X3fXBd97aTwTAMwzDMNckojb7vQ61WgzAMU/dt24ZarZa6V6vVSi9d11PfhGEItVoN4jiGMAzBdV2I4xhs2waA9X8K3263lXHjhUpIFYVEDgvTHcex8n3XdSEMQ5E2FUXPNiGO40yZynlVpbPdbivjx7TnQZ+7rpupK1VZUcIwLH1HDrPb7cJgMMjc932/MB6VLBV94/u+kKGrYNu2kEO5ThiGYRiG+VpppIP0YrGAJEnAMAzQdV3cbzabkCRJ6uMkSVKX53ngeV7q3nK5FO+7rguNRgMAADRNg0ajAYPBADRNg8lkArVaDaIogvl8nlI2x+OxCM+yLDg4OIAwDJUKSR5UGcP4ZSUUAGAwGECj0RBpowoLKhbboN1ug6ZpAHCpaGHYURSJvFJQ0ZvP56m0XTVNQRCk6kqG1n+tVoNGowHz+TyjzNHyM00zIxcqOaGoJhmO4xR+I9PpdKDZbBYqllVAWdtWPTMMwzDMm4KwNOIgPR6PxUNd18Wg3el0Uh+qLFXdbhe63W6uhajf74vwgiBIKRhBEIBlWUplM45j0HUdfN+HZrMJz549g9FolFIqLMuCKIrEN+12WyhYqChGUQSO40AQBOLfIAhSeUKFDd/Jy/91mc1mGWWqXq/D2dkZ1Ot15Te0/OTvikDlDxXiWq0Gq9WqNI1Y/7RusM4syxJKZ7/fT+VLtpbK1+7ubqo86YQD612eDHS73VTasH6ryB9aINGKrromk0lqItFqtUrLZ1N+/vOfw6effrr1cBmGYRjmVSCURjpIy0vKeVCFK4qijKURYK2MItSiKVutGo2GsDbSgR4AhDLV7XbhwYMH0Ol0hHLi+75QJqnyhEoZKjmoDD958gQMwxDvGYYhlJ6Dg4NSBWxbyEo3KkFUWQZYW0RpWcjWv6LlaGS5XIqywPLY29sTCmSZlfbk5AQODw/BdV1RZ5PJRHyvSgPKQBRFqcmAZVmp8s+jzNJIle4gCDIWbnph3Xc6ndx3HMcREwZ50nJVPvnkE/jVr34lfv/mN7+B3/3ud9cOl2EYhmFug4ylMUkSoTQul8uMRUZWEFAxwKVWgMvlxiRJ4N69e+K+YRiZwVq26MkDPfr9YfhUiRqPx7BYLKDb7RZaAtEHsNVqCWXg3r17QunB8I6Pj1NKLFWkN/WXK/OLk62GqARRcKmUWn9RAcTLMAyRRmpJVPmSLpdL2N/fF8vJZcvT+N1kMgGA9cQCv6FWYlQCURGmyj91PaDPaPp0XRdWQvSZLLM0XhWVhbLdbsO9e/fgxYsXpd+XKdjIJ598At/5znfgnXfe2UayGYZhGObWKdw93Wq1hGKASgIqCOfn50JBQYUOB34EB/vFYpG6J/vJqTZKoHJar9eFYgqwtmg2m82Mr6XKv6/dbsN8PofhcAj9fj9lPaJWJ1TKqO+krMxSxa0qRX5xsqUxb0lXVlZVlkZqLUOlTraUnZycwKNHj+Dhw4cAAJWWpwEARqMRWJYl/sU6p1ZirCtUhKllUS5HlCOavuVyKazUs9kMADbzaby4uFAuS6ss5qic07LCOC8uLgrLAidCKG95fPzxx/Db3/4WPvvsM/jpT38qri+//LIwfIZhGIa5yyiXp3FAL1J6VD55eZsgqMJV1dIoL2EeHx+DaZpwenqaUvim02kqXFxebrfb0Ov1wDRNMAyj0M+ObuTIU2arLANTTNMsXOqWLY3j8TizvB8EATSbzdR3KktjGa7rpsLp9/uVl6dRoRqPx7C3t1doaUTOzs5yy3E+n1cqy00sjc+fP89YTZMk2cgvcXd3F54/f175/SLeeecd+OqrrzL333vvPXj33Xe3EgfDMAzDvGqE0kiVleVyCXEcV95gQRUC1dIfoto8k2dppFYi13Xh8PAQANYKD/WNpHHSnbOz2Sy1ZE2tiNTKJG/kQGWIKrPUL7MqZWUnb8rwfR86nQ4Mh0Pxzmg0yiy7X8WncbVaKZfvqyxPy6gsjfKOZbqBSuU7WISu68KNATc3oeUyzwVB9lO9Cjs7O3B+fi5+q440ohbtovL6/ve/D2+99RZ8+9vfhh/84Aep6/79+9dKJ8MwDMPcFt8CAHj69Cns7u6mHjx79ixj5ZKhygG1PNG/KdS6hsoA3ckMACnFFWBt7VytVpnNK3JcdFPOXaDKcjYq6nTplfqRqsKgZV5Vmb3q0vr+/r74vl6vQ7/fhyAIQNO0lCIoK3MqX1jqd6liOp1Ct9sV9Y6bmyi+72eUZNd14dGjR7l5KIJaWjHdZVRVsD/44AP44osv4PPPPy99l2EYhmFeB74FsPZPlC010+l068fMIO12G1qtVkqZQUVQtk7W63Wl0oMbZPCZSvHdBrquw2AwgJ2dHaE8bQv0w6NLr2i1sywLjo+PM99QhSxPAatK0fL0s2fP4OHDhxDHMbTbbXHwtWEYQrnK2yCEPooAkNqRjPd2dnZS79dqNRgOh0IZ831fKX+LxSL1reu6sFqtUpZiJAxDofTKcdVqNTg/P08pvvV6HUajEbTbbQjDMLWB66p88MEHbFlkGIZh3hi+RS1KiOu6V7JOUXD5lSpZqOgNh8Ncq06SJDAcDlOKIy5H4zeodCZJAs+ePYNarZZZosSl8Hq9LuKlyhZVmKjigz58CPoQ1ut1kadGo7EVpYJaGheLBdRql4erj8djseGHLpVexdKYR9Hy9GKxEL6gs9kM6vV6ahd0rVYDx3Gg2WyK9KkOiaf1j76orVYrVeboF4n1tFgsRD3QeKnLBLovyHKKy/eNRgMODg4yeca8yvWM6avX69Dr9W5swsQwDMMwryu1pKozG8MwDMMwDPONpfDIHYZhGIZhGIYBYKWRYRiGYRiGqQArjQzDMAzDMEwprDQyDMMwDMMwpbDSyDAMwzAMw5TCSiPDMAzDMAxTCiuNDMMwDMMwTCmsNDIMwzAMwzClsNLIMAzDMAzDlMJKI8MwDMMwDFMKK40MwzAMwzBMKaw0MgzDMAzDMKX8/2tDyKLJ65VkAAAAAElFTkSuQmCC;" vertex="1" parent="1">
          <mxGeometry x="390" y="420" width="653" height="175" as="geometry" />
        </mxCell>
      </root>
    </mxGraphModel>
  </diagram>
</mxfile>
